<svg viewBox="0 0 726 460" fill="none" xmlns="http://www.w3.org/2000/svg">
<path d="M502.14 80.9178C510.792 80.9178 656.385 81.8295 665.535 81.5526C666.193 81.5351 666.545 80.6142 665.892 80.306C660.124 77.5874 653.581 78.1329 647.588 76.2111C644.06 75.0804 641.895 72.8853 639.448 70.3681C637.334 68.1914 634.882 66.5235 631.871 65.6605C629.208 64.9006 626.328 64.8021 623.623 65.4149C620.669 66.0855 618.104 67.6946 615.286 68.7094C608.292 71.2219 601.494 68.8345 596.502 63.9079C592.382 59.8489 588.334 56.018 582.735 53.8311C578.048 51.9985 572.842 51.6185 568.15 53.6389C562.81 55.9416 559.146 60.5729 554.129 63.3577C548.182 66.6661 541.071 65.8831 534.504 66.8804C527.919 67.8814 522.893 73.1438 517.135 76.1743C515.167 77.212 513.151 78.0787 510.855 78.0253C509.568 77.994 508.304 77.6628 507.031 77.511C505.048 77.2783 503.165 77.3325 501.831 78.9057C501.506 79.2903 501.572 80.9178 502.14 80.9178Z" fill="#EBEBEB"/>
<path d="M60.6155 66.4407C66.9325 66.4407 173.229 67.1068 179.909 66.9044C180.39 66.8915 180.647 66.219 180.17 65.9936C175.959 64.0091 171.182 64.4075 166.807 63.0036C164.231 62.1783 162.65 60.5757 160.864 58.7375C159.321 57.1478 157.531 55.9306 155.332 55.3004C153.388 54.7457 151.285 54.6739 149.309 55.121C147.153 55.6105 145.28 56.7853 143.223 57.5268C138.116 59.3613 133.154 57.6179 129.509 54.0216C126.502 51.0583 123.545 48.2606 119.458 46.6644C116.035 45.3258 112.236 45.0489 108.809 46.5236C104.91 48.2045 102.235 51.5864 98.5725 53.6196C94.2313 56.0346 89.0385 55.4633 84.245 56.1919C79.4369 56.9233 75.7675 60.7643 71.5636 62.9778C70.1272 63.735 68.656 64.3679 66.9789 64.3293C66.0393 64.3063 65.1162 64.0653 64.1872 63.9539C62.7402 63.7847 61.3646 63.8233 60.3912 64.9724C60.1525 65.253 60.2008 66.4407 60.6155 66.4407Z" fill="#EBEBEB"/>
<path d="M105.476 159.876C111.793 159.876 218.09 160.542 224.77 160.339C225.25 160.327 225.508 159.654 225.031 159.429C220.819 157.444 216.042 157.843 211.667 156.439C209.092 155.612 207.511 154.01 205.724 152.173C204.182 150.583 202.391 149.366 200.193 148.735C198.248 148.181 196.147 148.109 194.171 148.556C192.015 149.046 190.141 150.22 188.084 150.962C182.977 152.796 178.016 151.053 174.37 147.457C171.362 144.493 168.406 141.696 164.318 140.099C160.897 138.761 157.097 138.484 153.67 139.959C149.77 141.64 147.096 145.021 143.433 147.055C139.091 149.47 133.899 148.898 129.106 149.627C124.298 150.358 120.628 154.199 116.424 156.413C114.987 157.17 113.517 157.803 111.84 157.764C110.9 157.741 109.978 157.5 109.048 157.389C107.601 157.22 106.225 157.258 105.252 158.407C105.013 158.688 105.062 159.876 105.476 159.876Z" fill="#EBEBEB"/>
<path d="M503.211 149.172C509.528 149.172 615.825 149.838 622.505 149.635C622.986 149.623 623.243 148.95 622.766 148.725C618.555 146.74 613.778 147.139 609.403 145.735C606.827 144.908 605.246 143.306 603.46 141.469C601.917 139.879 600.127 138.662 597.928 138.031C595.984 137.477 593.882 137.405 591.906 137.852C589.749 138.341 587.876 139.517 585.819 140.258C580.714 142.092 575.751 140.349 572.106 136.753C569.098 133.789 566.142 130.992 562.055 129.396C558.632 128.058 554.833 127.781 551.406 129.256C547.507 130.936 544.832 134.318 541.169 136.352C536.827 138.767 531.635 138.195 526.841 138.924C522.033 139.655 518.363 143.496 514.159 145.71C512.722 146.467 511.251 147.1 509.574 147.061C508.634 147.038 507.712 146.797 506.782 146.686C505.335 146.517 503.96 146.555 502.986 147.704C502.748 147.984 502.797 149.172 503.211 149.172Z" fill="#EBEBEB"/>
<path d="M186.161 91.7978C186.283 92.1364 353.697 91.7978 351.584 91.7978C350.622 91.7978 353.046 90.4261 352.104 89.9845C346.654 87.4103 340.691 87.3395 334.757 86.8188C331.295 86.5198 327.736 86.0386 324.622 84.4792C321.467 82.906 319.5 80.1764 317.26 77.6546C310.342 69.8356 299.333 65.76 288.673 67.346C276.769 69.1207 267.385 77.7522 255.462 79.3382C248.298 80.2941 241.523 77.6546 234.523 76.7254C228.759 75.9646 223.958 77.0309 218.802 79.4615C215.025 81.2426 211.536 82.7441 207.267 83.0238C203.989 83.2446 200.697 82.8876 197.412 82.8545C192.154 82.8094 186.963 84.9769 182.914 88.3699C182.38 88.8179 180.695 91.7978 186.161 91.7978Z" fill="#EBEBEB"/>
<path d="M204.892 392.903H261.284L261.284 111.564H204.892L204.892 392.903Z" fill="#DBDBDB"/>
<path d="M241.57 131.444H252.532V120.702H241.57V131.444Z" fill="#EBEBEB"/>
<path d="M227.548 131.444H238.509V120.702H227.548V131.444Z" fill="#EBEBEB"/>
<path d="M241.57 149.683H252.532V138.94H241.57V149.683Z" fill="#EBEBEB"/>
<path d="M227.548 149.683H238.509V138.94H227.548V149.683Z" fill="#EBEBEB"/>
<path d="M241.57 167.921H252.532V157.179H241.57V167.921Z" fill="#EBEBEB"/>
<path d="M227.548 167.921H238.509V157.179H227.548V167.921Z" fill="#EBEBEB"/>
<path d="M241.57 186.159H252.532V175.416H241.57V186.159Z" fill="#EBEBEB"/>
<path d="M227.548 186.159H238.509V175.416H227.548V186.159Z" fill="#EBEBEB"/>
<path d="M241.57 204.397H252.532V193.655H241.57V204.397Z" fill="#EBEBEB"/>
<path d="M227.548 204.397H238.509V193.655H227.548V204.397Z" fill="#EBEBEB"/>
<path d="M241.57 222.636H252.532V211.893H241.57V222.636Z" fill="#EBEBEB"/>
<path d="M227.548 222.636H238.509V211.893H227.548V222.636Z" fill="#EBEBEB"/>
<path d="M241.57 240.875H252.532V230.133H241.57V240.875Z" fill="#EBEBEB"/>
<path d="M227.548 240.875H238.509V230.133H227.548V240.875Z" fill="#EBEBEB"/>
<path d="M241.57 259.113H252.532V248.37H241.57V259.113Z" fill="#EBEBEB"/>
<path d="M227.548 259.113H238.509V248.37H227.548V259.113Z" fill="#EBEBEB"/>
<path d="M241.57 277.35H252.532V266.607H241.57V277.35Z" fill="#EBEBEB"/>
<path d="M227.548 277.35H238.509V266.607H227.548V277.35Z" fill="#EBEBEB"/>
<path d="M241.57 295.588H252.532V284.846H241.57V295.588Z" fill="#EBEBEB"/>
<path d="M227.548 295.588H238.509V284.846H227.548V295.588Z" fill="#EBEBEB"/>
<path d="M241.57 313.827H252.532V303.084H241.57V313.827Z" fill="#EBEBEB"/>
<path d="M227.548 313.827H238.509V303.084H227.548V313.827Z" fill="#EBEBEB"/>
<path d="M241.57 332.066H252.532V321.323H241.57V332.066Z" fill="#EBEBEB"/>
<path d="M227.548 332.066H238.509V321.323H227.548V332.066Z" fill="#EBEBEB"/>
<path d="M241.57 350.304H252.532V339.561H241.57V350.304Z" fill="#EBEBEB"/>
<path d="M227.548 350.304H238.509V339.561H227.548V350.304Z" fill="#EBEBEB"/>
<path d="M241.57 368.542H252.532V357.8H241.57V368.542Z" fill="#EBEBEB"/>
<path d="M224.608 357.799H213.646V368.542H224.608V357.799Z" fill="#EBEBEB"/>
<path d="M224.608 339.561H213.646V350.304H224.608V339.561Z" fill="#EBEBEB"/>
<path d="M224.608 321.323H213.646V332.066H224.608V321.323Z" fill="#EBEBEB"/>
<path d="M224.608 303.085H213.646V313.828H224.608V303.085Z" fill="#EBEBEB"/>
<path d="M224.608 284.847H213.646V295.59H224.608V284.847Z" fill="#EBEBEB"/>
<path d="M224.608 266.608H213.646V277.351H224.608V266.608Z" fill="#EBEBEB"/>
<path d="M224.608 248.37H213.646V259.112H224.608V248.37Z" fill="#EBEBEB"/>
<path d="M224.608 230.131H213.646V240.873H224.608V230.131Z" fill="#EBEBEB"/>
<path d="M224.608 211.894H213.646V222.636H224.608V211.894Z" fill="#EBEBEB"/>
<path d="M224.608 193.655H213.646V204.398H224.608V193.655Z" fill="#EBEBEB"/>
<path d="M224.608 175.417H213.646V186.16H224.608V175.417Z" fill="#EBEBEB"/>
<path d="M224.608 157.178H213.646V167.921H224.608V157.178Z" fill="#EBEBEB"/>
<path d="M224.608 138.94H213.646V149.683H224.608V138.94Z" fill="#EBEBEB"/>
<path d="M224.608 120.702H213.646V131.444H224.608V120.702Z" fill="#EBEBEB"/>
<path d="M227.548 368.542H238.509V357.8H227.548V368.542Z" fill="#EBEBEB"/>
<path d="M160.432 392.903H204.893L204.893 111.564H160.432L160.432 392.903Z" fill="#A6A6A6"/>
<path d="M174.068 357.799H165.015V368.542H174.068V357.799Z" fill="#C7C7C7"/>
<path d="M185.648 357.799H176.596V368.542H185.648V357.799Z" fill="#C7C7C7"/>
<path d="M174.068 339.561H165.015V350.304H174.068V339.561Z" fill="#C7C7C7"/>
<path d="M185.648 339.561H176.596V350.304H185.648V339.561Z" fill="#C7C7C7"/>
<path d="M174.068 321.323H165.015V332.066H174.068V321.323Z" fill="#C7C7C7"/>
<path d="M185.648 321.323H176.596V332.066H185.648V321.323Z" fill="#C7C7C7"/>
<path d="M174.068 303.085H165.015V313.828H174.068V303.085Z" fill="#C7C7C7"/>
<path d="M185.648 303.085H176.596V313.828H185.648V303.085Z" fill="#C7C7C7"/>
<path d="M174.068 284.847H165.015V295.59H174.068V284.847Z" fill="#C7C7C7"/>
<path d="M185.648 284.847H176.596V295.59H185.648V284.847Z" fill="#C7C7C7"/>
<path d="M174.068 266.608H165.015V277.351H174.068V266.608Z" fill="#C7C7C7"/>
<path d="M185.648 266.608H176.596V277.351H185.648V266.608Z" fill="#C7C7C7"/>
<path d="M174.068 248.37H165.015V259.112H174.068V248.37Z" fill="#C7C7C7"/>
<path d="M185.648 248.37H176.596V259.112H185.648V248.37Z" fill="#C7C7C7"/>
<path d="M174.068 230.131H165.015V240.873H174.068V230.131Z" fill="#C7C7C7"/>
<path d="M185.648 230.131H176.596V240.873H185.648V230.131Z" fill="#C7C7C7"/>
<path d="M174.068 211.894H165.015V222.636H174.068V211.894Z" fill="#C7C7C7"/>
<path d="M185.648 211.894H176.596V222.636H185.648V211.894Z" fill="#C7C7C7"/>
<path d="M174.068 193.655H165.015V204.398H174.068V193.655Z" fill="#C7C7C7"/>
<path d="M185.648 193.655H176.596V204.398H185.648V193.655Z" fill="#C7C7C7"/>
<path d="M174.068 175.417H165.015V186.16H174.068V175.417Z" fill="#C7C7C7"/>
<path d="M185.648 175.417H176.596V186.16H185.648V175.417Z" fill="#C7C7C7"/>
<path d="M174.068 157.178H165.015V167.921H174.068V157.178Z" fill="#C7C7C7"/>
<path d="M185.648 157.178H176.596V167.921H185.648V157.178Z" fill="#C7C7C7"/>
<path d="M174.068 138.94H165.015V149.683H174.068V138.94Z" fill="#C7C7C7"/>
<path d="M185.648 138.94H176.596V149.683H185.648V138.94Z" fill="#C7C7C7"/>
<path d="M174.068 120.702H165.015V131.444H174.068V120.702Z" fill="#C7C7C7"/>
<path d="M188.075 131.444H197.127V120.702H188.075V131.444Z" fill="#C7C7C7"/>
<path d="M188.075 149.683H197.127V138.94H188.075V149.683Z" fill="#C7C7C7"/>
<path d="M188.075 167.921H197.127V157.179H188.075V167.921Z" fill="#C7C7C7"/>
<path d="M188.075 186.159H197.127V175.416H188.075V186.159Z" fill="#C7C7C7"/>
<path d="M188.075 204.397H197.127V193.655H188.075V204.397Z" fill="#C7C7C7"/>
<path d="M188.075 222.636H197.127V211.893H188.075V222.636Z" fill="#C7C7C7"/>
<path d="M188.075 240.875H197.127V230.133H188.075V240.875Z" fill="#C7C7C7"/>
<path d="M188.075 259.113H197.127V248.37H188.075V259.113Z" fill="#C7C7C7"/>
<path d="M188.075 277.35H197.127V266.607H188.075V277.35Z" fill="#C7C7C7"/>
<path d="M188.075 295.588H197.127V284.846H188.075V295.588Z" fill="#C7C7C7"/>
<path d="M188.075 313.827H197.127V303.084H188.075V313.827Z" fill="#C7C7C7"/>
<path d="M188.075 332.066H197.127V321.323H188.075V332.066Z" fill="#C7C7C7"/>
<path d="M188.075 350.304H197.127V339.561H188.075V350.304Z" fill="#C7C7C7"/>
<path d="M188.075 368.542H197.127V357.8H188.075V368.542Z" fill="#C7C7C7"/>
<path d="M185.648 120.702H176.596V131.444H185.648V120.702Z" fill="#C7C7C7"/>
<path d="M513.605 392.903H576.51V113.309H513.605V392.903Z" fill="#EBEBEB"/>
<path d="M513.605 113.309L578.023 113.309V107.188H513.605V113.309Z" fill="#C7C7C7"/>
<path d="M564.449 392.904H570.822V122.333H564.449V392.904Z" fill="white"/>
<path d="M553.16 392.904H559.533V122.333H553.16V392.904Z" fill="white"/>
<path d="M541.871 392.904H548.244V122.333H541.871V392.904Z" fill="white"/>
<path d="M530.582 392.904H536.956V122.333H530.582V392.904Z" fill="white"/>
<path d="M519.292 392.904H525.666V122.333H519.292V392.904Z" fill="white"/>
<path d="M564.449 142.151H570.822V130.068H564.449V142.151Z" fill="#EBEBEB"/>
<path d="M553.16 142.151H559.533V130.068H553.16V142.151Z" fill="#EBEBEB"/>
<path d="M541.871 142.151H548.244V130.068H541.871V142.151Z" fill="#EBEBEB"/>
<path d="M530.582 142.151H536.956V130.068H530.582V142.151Z" fill="#EBEBEB"/>
<path d="M519.292 142.151H525.666V130.068H519.292V142.151Z" fill="#EBEBEB"/>
<path d="M564.449 161.789H570.822V149.704H564.449V161.789Z" fill="#EBEBEB"/>
<path d="M553.16 161.789H559.533V149.704H553.16V161.789Z" fill="#EBEBEB"/>
<path d="M541.871 161.789H548.244V149.704H541.871V161.789Z" fill="#EBEBEB"/>
<path d="M530.582 161.789H536.956V149.704H530.582V161.789Z" fill="#EBEBEB"/>
<path d="M519.292 161.789H525.666V149.704H519.292V161.789Z" fill="#EBEBEB"/>
<path d="M564.449 181.427H570.822V169.344H564.449V181.427Z" fill="#EBEBEB"/>
<path d="M553.16 181.427H559.533V169.344H553.16V181.427Z" fill="#EBEBEB"/>
<path d="M541.871 181.427H548.244V169.344H541.871V181.427Z" fill="#EBEBEB"/>
<path d="M530.582 181.427H536.956V169.344H530.582V181.427Z" fill="#EBEBEB"/>
<path d="M519.292 181.427H525.666V169.344H519.292V181.427Z" fill="#EBEBEB"/>
<path d="M564.449 201.067H570.822V188.984H564.449V201.067Z" fill="#EBEBEB"/>
<path d="M553.16 201.067H559.533V188.984H553.16V201.067Z" fill="#EBEBEB"/>
<path d="M541.871 201.067H548.244V188.984H541.871V201.067Z" fill="#EBEBEB"/>
<path d="M530.582 201.067H536.956V188.984H530.582V201.067Z" fill="#EBEBEB"/>
<path d="M519.292 201.067H525.666V188.984H519.292V201.067Z" fill="#EBEBEB"/>
<path d="M564.449 220.705H570.822V208.622H564.449V220.705Z" fill="#EBEBEB"/>
<path d="M553.16 220.705H559.533V208.622H553.16V220.705Z" fill="#EBEBEB"/>
<path d="M541.871 220.705H548.244V208.622H541.871V220.705Z" fill="#EBEBEB"/>
<path d="M530.582 220.705H536.956V208.622H530.582V220.705Z" fill="#EBEBEB"/>
<path d="M519.292 220.705H525.666V208.622H519.292V220.705Z" fill="#EBEBEB"/>
<path d="M564.449 240.344H570.822V228.26H564.449V240.344Z" fill="#EBEBEB"/>
<path d="M553.16 240.344H559.533V228.26H553.16V240.344Z" fill="#EBEBEB"/>
<path d="M541.871 240.344H548.244V228.26H541.871V240.344Z" fill="#EBEBEB"/>
<path d="M530.582 240.344H536.956V228.26H530.582V240.344Z" fill="#EBEBEB"/>
<path d="M519.292 240.344H525.666V228.26H519.292V240.344Z" fill="#EBEBEB"/>
<path d="M564.449 259.983H570.822V247.9H564.449V259.983Z" fill="#EBEBEB"/>
<path d="M553.16 259.983H559.533V247.9H553.16V259.983Z" fill="#EBEBEB"/>
<path d="M541.871 259.983H548.244V247.9H541.871V259.983Z" fill="#EBEBEB"/>
<path d="M530.582 259.983H536.956V247.9H530.582V259.983Z" fill="#EBEBEB"/>
<path d="M519.292 259.983H525.666V247.9H519.292V259.983Z" fill="#EBEBEB"/>
<path d="M564.449 279.622H570.822V267.538H564.449V279.622Z" fill="#EBEBEB"/>
<path d="M553.16 279.622H559.533V267.538H553.16V279.622Z" fill="#EBEBEB"/>
<path d="M541.871 279.622H548.244V267.538H541.871V279.622Z" fill="#EBEBEB"/>
<path d="M530.582 279.622H536.956V267.538H530.582V279.622Z" fill="#EBEBEB"/>
<path d="M519.292 279.622H525.666V267.538H519.292V279.622Z" fill="#EBEBEB"/>
<path d="M564.449 299.261H570.822V287.178H564.449V299.261Z" fill="#EBEBEB"/>
<path d="M553.16 299.261H559.533V287.178H553.16V299.261Z" fill="#EBEBEB"/>
<path d="M541.871 299.261H548.244V287.178H541.871V299.261Z" fill="#EBEBEB"/>
<path d="M530.582 299.261H536.956V287.178H530.582V299.261Z" fill="#EBEBEB"/>
<path d="M519.292 299.261H525.666V287.178H519.292V299.261Z" fill="#EBEBEB"/>
<path d="M564.449 318.899H570.822V306.815H564.449V318.899Z" fill="#EBEBEB"/>
<path d="M553.16 318.899H559.533V306.815H553.16V318.899Z" fill="#EBEBEB"/>
<path d="M541.871 318.899H548.244V306.815H541.871V318.899Z" fill="#EBEBEB"/>
<path d="M530.582 318.899H536.956V306.815H530.582V318.899Z" fill="#EBEBEB"/>
<path d="M519.292 318.899H525.666V306.815H519.292V318.899Z" fill="#EBEBEB"/>
<path d="M564.449 338.539H570.822V326.455H564.449V338.539Z" fill="#EBEBEB"/>
<path d="M553.16 338.539H559.533V326.455H553.16V338.539Z" fill="#EBEBEB"/>
<path d="M541.871 338.539H548.244V326.455H541.871V338.539Z" fill="#EBEBEB"/>
<path d="M530.582 338.539H536.956V326.455H530.582V338.539Z" fill="#EBEBEB"/>
<path d="M519.292 338.539H525.666V326.455H519.292V338.539Z" fill="#EBEBEB"/>
<path d="M564.449 358.177H570.822V346.094H564.449V358.177Z" fill="#EBEBEB"/>
<path d="M553.16 358.177H559.533V346.094H553.16V358.177Z" fill="#EBEBEB"/>
<path d="M541.871 358.177H548.244V346.094H541.871V358.177Z" fill="#EBEBEB"/>
<path d="M530.582 358.177H536.956V346.094H530.582V358.177Z" fill="#EBEBEB"/>
<path d="M519.292 358.177H525.666V346.094H519.292V358.177Z" fill="#EBEBEB"/>
<path d="M564.449 377.816H570.822V365.733H564.449V377.816Z" fill="#EBEBEB"/>
<path d="M553.16 377.816H559.533V365.733H553.16V377.816Z" fill="#EBEBEB"/>
<path d="M541.871 377.816H548.244V365.733H541.871V377.816Z" fill="#EBEBEB"/>
<path d="M530.582 377.816H536.956V365.733H530.582V377.816Z" fill="#EBEBEB"/>
<path d="M519.292 377.816H525.666V365.733H519.292V377.816Z" fill="#EBEBEB"/>
<path d="M564.449 392.903H570.822V385.371H564.449V392.903Z" fill="#EBEBEB"/>
<path d="M553.16 392.903H559.533V385.371H553.16V392.903Z" fill="#EBEBEB"/>
<path d="M541.871 392.903H548.244V385.371H541.871V392.903Z" fill="#EBEBEB"/>
<path d="M530.582 392.903H536.956V385.371H530.582V392.903Z" fill="#EBEBEB"/>
<path d="M519.292 392.903H525.666V385.371H519.292V392.903Z" fill="#EBEBEB"/>
<path d="M473.22 392.903H513.605V113.309H473.22L473.22 392.903Z" fill="#DBDBDB"/>
<path d="M471.472 113.309H513.604V107.188H471.472V113.309Z" fill="#C7C7C7"/>
<path d="M501.544 392.904H507.917L507.917 122.333H501.544L501.544 392.904Z" fill="#C7C7C7"/>
<path d="M490.255 392.904H496.628L496.628 122.333H490.255L490.255 392.904Z" fill="#C7C7C7"/>
<path d="M478.966 392.904H485.339L485.339 122.333H478.966L478.966 392.904Z" fill="#C7C7C7"/>
<path d="M501.544 142.151H507.917V130.068H501.544V142.151Z" fill="#DBDBDB"/>
<path d="M490.255 142.151H496.628V130.068H490.255V142.151Z" fill="#DBDBDB"/>
<path d="M478.966 142.151H485.339V130.068H478.966V142.151Z" fill="#DBDBDB"/>
<path d="M501.544 161.789H507.917V149.704H501.544V161.789Z" fill="#DBDBDB"/>
<path d="M490.255 161.789H496.628V149.704H490.255V161.789Z" fill="#DBDBDB"/>
<path d="M478.966 161.789H485.339V149.704H478.966V161.789Z" fill="#DBDBDB"/>
<path d="M501.544 181.427H507.917V169.344H501.544V181.427Z" fill="#DBDBDB"/>
<path d="M490.255 181.427H496.628V169.344H490.255V181.427Z" fill="#DBDBDB"/>
<path d="M478.966 181.427H485.339V169.344H478.966V181.427Z" fill="#DBDBDB"/>
<path d="M501.544 201.067H507.917V188.984H501.544V201.067Z" fill="#DBDBDB"/>
<path d="M490.255 201.067H496.628V188.984H490.255V201.067Z" fill="#DBDBDB"/>
<path d="M478.966 201.067H485.339V188.984H478.966V201.067Z" fill="#DBDBDB"/>
<path d="M501.544 220.705H507.917V208.622H501.544V220.705Z" fill="#DBDBDB"/>
<path d="M490.255 220.705H496.628V208.622H490.255V220.705Z" fill="#DBDBDB"/>
<path d="M478.966 220.705H485.339V208.622H478.966V220.705Z" fill="#DBDBDB"/>
<path d="M501.544 240.344H507.917V228.26H501.544V240.344Z" fill="#DBDBDB"/>
<path d="M490.255 240.344H496.628V228.26H490.255V240.344Z" fill="#DBDBDB"/>
<path d="M478.966 240.344H485.339V228.26H478.966V240.344Z" fill="#DBDBDB"/>
<path d="M501.544 259.983H507.917V247.9H501.544V259.983Z" fill="#DBDBDB"/>
<path d="M490.255 259.983H496.628V247.9H490.255V259.983Z" fill="#DBDBDB"/>
<path d="M478.966 259.983H485.339V247.9H478.966V259.983Z" fill="#DBDBDB"/>
<path d="M501.544 279.622H507.917V267.538H501.544V279.622Z" fill="#DBDBDB"/>
<path d="M490.255 279.622H496.628V267.538H490.255V279.622Z" fill="#DBDBDB"/>
<path d="M478.966 279.622H485.339V267.538H478.966V279.622Z" fill="#DBDBDB"/>
<path d="M501.544 299.261H507.917V287.178H501.544V299.261Z" fill="#DBDBDB"/>
<path d="M490.255 299.261H496.628V287.178H490.255V299.261Z" fill="#DBDBDB"/>
<path d="M478.966 299.261H485.339V287.178H478.966V299.261Z" fill="#DBDBDB"/>
<path d="M501.544 318.899H507.917V306.815H501.544V318.899Z" fill="#DBDBDB"/>
<path d="M490.255 318.899H496.628V306.815H490.255V318.899Z" fill="#DBDBDB"/>
<path d="M478.966 318.899H485.339V306.815H478.966V318.899Z" fill="#DBDBDB"/>
<path d="M501.544 338.539H507.917V326.455H501.544V338.539Z" fill="#DBDBDB"/>
<path d="M490.255 338.539H496.628V326.455H490.255V338.539Z" fill="#DBDBDB"/>
<path d="M478.966 338.539H485.339V326.455H478.966V338.539Z" fill="#DBDBDB"/>
<path d="M501.544 358.177H507.917V346.094H501.544V358.177Z" fill="#DBDBDB"/>
<path d="M490.255 358.177H496.628V346.094H490.255V358.177Z" fill="#DBDBDB"/>
<path d="M478.966 358.177H485.339V346.094H478.966V358.177Z" fill="#DBDBDB"/>
<path d="M501.544 377.816H507.917V365.733H501.544V377.816Z" fill="#DBDBDB"/>
<path d="M490.255 377.816H496.628V365.733H490.255V377.816Z" fill="#DBDBDB"/>
<path d="M478.966 377.816H485.339V365.733H478.966V377.816Z" fill="#DBDBDB"/>
<path d="M501.544 392.903H507.917V385.371H501.544V392.903Z" fill="#DBDBDB"/>
<path d="M490.255 392.903H496.628V385.371H490.255V392.903Z" fill="#DBDBDB"/>
<path d="M478.966 392.903H485.339V385.371H478.966V392.903Z" fill="#DBDBDB"/>
<path d="M593.74 392.903H660.166V205.362H593.74V392.903Z" fill="#EBEBEB"/>
<path d="M593.741 205.362H650.718V189.46H593.741V205.362Z" fill="#C7C7C7"/>
<path d="M601.023 392.903H652.883V213.662H601.023V392.903Z" fill="#DBDBDB"/>
<path d="M601.023 235.003H652.883V230.768H601.023V235.003Z" fill="white"/>
<path d="M601.023 252.548H652.883V248.312H601.023V252.548Z" fill="white"/>
<path d="M601.023 270.092H652.883V265.857H601.023V270.092Z" fill="white"/>
<path d="M601.023 287.637H652.883V283.401H601.023V287.637Z" fill="white"/>
<path d="M601.023 305.182H652.883V300.946H601.023V305.182Z" fill="white"/>
<path d="M601.023 322.726H652.883V318.49H601.023V322.726Z" fill="white"/>
<path d="M601.023 340.27H652.883V336.034H601.023V340.27Z" fill="white"/>
<path d="M601.023 357.814H652.883V353.578H601.023V357.814Z" fill="white"/>
<path d="M601.023 375.359H652.883V371.123H601.023V375.359Z" fill="white"/>
<path d="M601.023 392.903H652.883V388.667H601.023V392.903Z" fill="white"/>
<path d="M552.134 392.903H593.74V205.362H552.134V392.903Z" fill="#DBDBDB"/>
<path d="M558.377 205.362H593.74V189.46H558.377V205.362Z" fill="#A6A6A6"/>
<path d="M556.014 392.903H588.004V213.662H556.014V392.903Z" fill="#C7C7C7"/>
<path d="M556.014 235.003H588.004V230.768H556.014V235.003Z" fill="white"/>
<path d="M556.014 252.548H588.004V248.312H556.014V252.548Z" fill="white"/>
<path d="M556.014 270.092H588.004V265.857H556.014V270.092Z" fill="white"/>
<path d="M556.014 287.637H588.004V283.401H556.014V287.637Z" fill="white"/>
<path d="M556.014 305.182H588.004V300.946H556.014V305.182Z" fill="white"/>
<path d="M556.014 322.726H588.004V318.49H556.014V322.726Z" fill="white"/>
<path d="M556.014 340.27H588.004V336.034H556.014V340.27Z" fill="white"/>
<path d="M556.014 357.814H588.004V353.578H556.014V357.814Z" fill="white"/>
<path d="M556.014 375.359H588.004V371.123H556.014V375.359Z" fill="white"/>
<path d="M556.014 392.903H588.004V388.667H556.014V392.903Z" fill="white"/>
<path d="M433.428 392.903H489.712V205.362H433.428V392.903Z" fill="#DBDBDB"/>
<path d="M470.901 233.085H480.861V221.596H470.901V233.085Z" fill="#C7C7C7"/>
<path d="M470.901 257.627H480.861V246.138H470.901V257.627Z" fill="#C7C7C7"/>
<path d="M470.901 282.169H480.861V270.679H470.901V282.169Z" fill="#C7C7C7"/>
<path d="M470.901 306.71H480.861V295.221H470.901V306.71Z" fill="#C7C7C7"/>
<path d="M470.901 331.252H480.861V319.762H470.901V331.252Z" fill="#C7C7C7"/>
<path d="M470.901 355.794H480.861V344.304H470.901V355.794Z" fill="#C7C7C7"/>
<path d="M470.901 380.336H480.861V368.846H470.901V380.336Z" fill="#C7C7C7"/>
<path d="M456.572 233.085H466.533V221.596H456.572V233.085Z" fill="#C7C7C7"/>
<path d="M456.572 257.627H466.533V246.138H456.572V257.627Z" fill="#C7C7C7"/>
<path d="M456.572 282.169H466.533V270.679H456.572V282.169Z" fill="#C7C7C7"/>
<path d="M456.572 306.71H466.533V295.221H456.572V306.71Z" fill="#C7C7C7"/>
<path d="M456.572 331.252H466.533V319.762H456.572V331.252Z" fill="#C7C7C7"/>
<path d="M456.572 355.794H466.533V344.304H456.572V355.794Z" fill="#C7C7C7"/>
<path d="M456.572 380.336H466.533V368.846H456.572V380.336Z" fill="#C7C7C7"/>
<path d="M442.28 233.085H452.241V221.596H442.28V233.085Z" fill="#C7C7C7"/>
<path d="M442.28 257.627H452.241V246.138H442.28V257.627Z" fill="#C7C7C7"/>
<path d="M442.28 282.169H452.241V270.679H442.28V282.169Z" fill="#C7C7C7"/>
<path d="M442.28 306.71H452.241V295.221H442.28V306.71Z" fill="#C7C7C7"/>
<path d="M442.28 331.252H452.241V319.762H442.28V331.252Z" fill="#C7C7C7"/>
<path d="M442.28 355.794H452.241V344.304H442.28V355.794Z" fill="#C7C7C7"/>
<path d="M442.28 380.336H452.241V368.846H442.28V380.336Z" fill="#C7C7C7"/>
<path d="M393.94 392.903H433.429V205.362H393.94V392.903Z" fill="#A6A6A6"/>
<path d="M406.088 367.013H397.98V378.503H406.088V367.013Z" fill="#C7C7C7"/>
<path d="M406.088 342.471H397.98V353.961H406.088V342.471Z" fill="#C7C7C7"/>
<path d="M406.088 317.93H397.98V329.42H406.088V317.93Z" fill="#C7C7C7"/>
<path d="M406.088 293.388H397.98V304.879H406.088V293.388Z" fill="#C7C7C7"/>
<path d="M406.088 268.846H397.98V280.337H406.088V268.846Z" fill="#C7C7C7"/>
<path d="M406.088 244.304H397.98V255.795H406.088V244.304Z" fill="#C7C7C7"/>
<path d="M406.088 219.763H397.98V231.253H406.088V219.763Z" fill="#C7C7C7"/>
<path d="M417.752 367.013H409.644V378.503H417.752V367.013Z" fill="#C7C7C7"/>
<path d="M417.752 342.471H409.644V353.961H417.752V342.471Z" fill="#C7C7C7"/>
<path d="M417.752 317.93H409.644V329.42H417.752V317.93Z" fill="#C7C7C7"/>
<path d="M417.752 293.388H409.644V304.879H417.752V293.388Z" fill="#C7C7C7"/>
<path d="M417.752 268.846H409.644V280.337H417.752V268.846Z" fill="#C7C7C7"/>
<path d="M417.752 244.304H409.644V255.795H417.752V244.304Z" fill="#C7C7C7"/>
<path d="M417.752 219.763H409.644V231.253H417.752V219.763Z" fill="#C7C7C7"/>
<path d="M429.386 367.013H421.278V378.503H429.386V367.013Z" fill="#C7C7C7"/>
<path d="M429.386 342.471H421.278V353.961H429.386V342.471Z" fill="#C7C7C7"/>
<path d="M429.386 317.93H421.278V329.42H429.386V317.93Z" fill="#C7C7C7"/>
<path d="M429.386 293.388H421.278V304.879H429.386V293.388Z" fill="#C7C7C7"/>
<path d="M429.386 268.846H421.278V280.337H429.386V268.846Z" fill="#C7C7C7"/>
<path d="M429.386 244.304H421.278V255.795H429.386V244.304Z" fill="#C7C7C7"/>
<path d="M429.386 219.763H421.278V231.253H429.386V219.763Z" fill="#C7C7C7"/>
<path d="M121.088 197.065H156.565V157.179H121.088V197.065Z" fill="#DBDBDB"/>
<path d="M98.5938 198.528H121.088V157.179H98.5938V198.528Z" fill="#C7C7C7"/>
<path d="M97.0964 198.528H119.421V174.792H97.0964V198.528Z" fill="#DBDBDB"/>
<path d="M83.1726 198.528H97.0961V174.792H83.1726V198.528Z" fill="#C7C7C7"/>
<path d="M112.806 392.904H170.172L170.172 194.473H112.806L112.806 392.904Z" fill="#EBEBEB"/>
<path d="M145.576 210.019H163.615V203.004H145.576V210.019Z" fill="white"/>
<path d="M122.499 210.019H140.538V203.004H122.499V210.019Z" fill="white"/>
<path d="M145.576 221.929H163.615V214.914H145.576V221.929Z" fill="white"/>
<path d="M122.499 221.929H140.538V214.914H122.499V221.929Z" fill="white"/>
<path d="M145.576 233.84H163.615V226.825H145.576V233.84Z" fill="white"/>
<path d="M122.499 233.84H140.538V226.825H122.499V233.84Z" fill="white"/>
<path d="M145.576 245.75H163.615V238.735H145.576V245.75Z" fill="white"/>
<path d="M122.499 245.75H140.538V238.735H122.499V245.75Z" fill="white"/>
<path d="M145.576 257.66H163.615V250.645H145.576V257.66Z" fill="white"/>
<path d="M122.499 257.66H140.538V250.645H122.499V257.66Z" fill="white"/>
<path d="M145.576 269.57H163.615V262.555H145.576V269.57Z" fill="white"/>
<path d="M122.499 269.57H140.538V262.555H122.499V269.57Z" fill="white"/>
<path d="M145.576 281.48H163.615V274.465H145.576V281.48Z" fill="white"/>
<path d="M122.499 281.48H140.538V274.465H122.499V281.48Z" fill="white"/>
<path d="M145.576 293.391H163.615V286.376H145.576V293.391Z" fill="white"/>
<path d="M122.499 293.391H140.538V286.376H122.499V293.391Z" fill="white"/>
<path d="M145.576 305.301H163.615V298.286H145.576V305.301Z" fill="white"/>
<path d="M122.499 305.301H140.538V298.286H122.499V305.301Z" fill="white"/>
<path d="M145.576 317.212H163.615V310.197H145.576V317.212Z" fill="white"/>
<path d="M122.499 317.212H140.538V310.197H122.499V317.212Z" fill="white"/>
<path d="M145.576 329.123H163.615V322.107H145.576V329.123Z" fill="white"/>
<path d="M122.499 329.123H140.538V322.107H122.499V329.123Z" fill="white"/>
<path d="M145.576 341.033H163.615V334.017H145.576V341.033Z" fill="white"/>
<path d="M122.499 341.033H140.538V334.017H122.499V341.033Z" fill="white"/>
<path d="M145.576 352.944H163.615V345.929H145.576V352.944Z" fill="white"/>
<path d="M122.499 352.944H140.538V345.929H122.499V352.944Z" fill="white"/>
<path d="M145.576 364.854H163.615V357.839H145.576V364.854Z" fill="white"/>
<path d="M122.499 364.854H140.538V357.839H122.499V364.854Z" fill="white"/>
<path d="M66.3202 392.904H112.806L112.806 194.473H66.3202L66.3202 392.904Z" fill="#C7C7C7"/>
<path d="M85.7925 357.839H70.9817V364.854H85.7925V357.839Z" fill="#EBEBEB"/>
<path d="M104.74 357.839H89.9288V364.854H104.74V357.839Z" fill="#EBEBEB"/>
<path d="M85.7925 345.928H70.9817V352.943H85.7925V345.928Z" fill="#EBEBEB"/>
<path d="M104.74 345.928H89.9288V352.943H104.74V345.928Z" fill="#EBEBEB"/>
<path d="M85.7925 334.018H70.9817V341.033H85.7925V334.018Z" fill="#EBEBEB"/>
<path d="M104.74 334.018H89.9288V341.033H104.74V334.018Z" fill="#EBEBEB"/>
<path d="M85.7925 322.107H70.9817V329.123H85.7925V322.107Z" fill="#EBEBEB"/>
<path d="M104.74 322.107H89.9288V329.123H104.74V322.107Z" fill="#EBEBEB"/>
<path d="M85.7925 310.197H70.9817V317.212H85.7925V310.197Z" fill="#EBEBEB"/>
<path d="M104.74 310.197H89.9288V317.212H104.74V310.197Z" fill="#EBEBEB"/>
<path d="M85.7925 298.287H70.9817V305.302H85.7925V298.287Z" fill="#EBEBEB"/>
<path d="M104.74 298.287H89.9288V305.302H104.74V298.287Z" fill="#EBEBEB"/>
<path d="M85.7925 286.376H70.9817V293.391H85.7925V286.376Z" fill="#EBEBEB"/>
<path d="M104.74 286.376H89.9288V293.391H104.74V286.376Z" fill="#EBEBEB"/>
<path d="M85.7925 274.466H70.9817V281.481H85.7925V274.466Z" fill="#EBEBEB"/>
<path d="M104.74 274.466H89.9288V281.481H104.74V274.466Z" fill="#EBEBEB"/>
<path d="M85.7925 262.556H70.9817V269.571H85.7925V262.556Z" fill="#EBEBEB"/>
<path d="M104.74 262.556H89.9288V269.571H104.74V262.556Z" fill="#EBEBEB"/>
<path d="M85.7925 250.644H70.9817V257.659H85.7925V250.644Z" fill="#EBEBEB"/>
<path d="M104.74 250.644H89.9288V257.659H104.74V250.644Z" fill="#EBEBEB"/>
<path d="M85.7925 238.734H70.9817V245.749H85.7925V238.734Z" fill="#EBEBEB"/>
<path d="M104.74 238.734H89.9288V245.749H104.74V238.734Z" fill="#EBEBEB"/>
<path d="M85.7925 226.824H70.9817V233.839H85.7925V226.824Z" fill="#EBEBEB"/>
<path d="M104.74 226.824H89.9288V233.839H104.74V226.824Z" fill="#EBEBEB"/>
<path d="M85.7925 214.913H70.9817V221.928H85.7925V214.913Z" fill="#EBEBEB"/>
<path d="M104.74 214.913H89.9288V221.928H104.74V214.913Z" fill="#EBEBEB"/>
<path d="M85.7925 203.003H70.9817V210.018H85.7925V203.003Z" fill="#EBEBEB"/>
<path d="M104.74 203.003H89.9288V210.018H104.74V203.003Z" fill="#EBEBEB"/>
<path d="M281.08 392.904H348.744V263.603H281.08V392.904Z" fill="#C7C7C7"/>
<path d="M326.129 282.717H338.103V274.795H326.129V282.717Z" fill="#DBDBDB"/>
<path d="M326.129 299.638H338.103V291.716H326.129V299.638Z" fill="#DBDBDB"/>
<path d="M326.129 316.558H338.103V308.636H326.129V316.558Z" fill="#DBDBDB"/>
<path d="M326.129 333.478H338.103V325.556H326.129V333.478Z" fill="#DBDBDB"/>
<path d="M326.129 350.398H338.103V342.476H326.129V350.398Z" fill="#DBDBDB"/>
<path d="M326.129 367.318H338.103V359.396H326.129V367.318Z" fill="#DBDBDB"/>
<path d="M326.129 384.239H338.103V376.317H326.129V384.239Z" fill="#DBDBDB"/>
<path d="M308.904 282.717H320.879V274.795H308.904V282.717Z" fill="#DBDBDB"/>
<path d="M308.904 299.638H320.879V291.716H308.904V299.638Z" fill="#DBDBDB"/>
<path d="M308.904 316.558H320.879V308.636H308.904V316.558Z" fill="#DBDBDB"/>
<path d="M308.904 333.478H320.879V325.556H308.904V333.478Z" fill="#DBDBDB"/>
<path d="M308.904 350.398H320.879V342.476H308.904V350.398Z" fill="#DBDBDB"/>
<path d="M308.904 367.318H320.879V359.396H308.904V367.318Z" fill="#DBDBDB"/>
<path d="M308.904 384.239H320.879V376.317H308.904V384.239Z" fill="#DBDBDB"/>
<path d="M291.721 282.717H303.696V274.795H291.721V282.717Z" fill="#DBDBDB"/>
<path d="M291.721 299.638H303.696V291.716H291.721V299.638Z" fill="#DBDBDB"/>
<path d="M291.721 316.558H303.696V308.636H291.721V316.558Z" fill="#DBDBDB"/>
<path d="M291.721 333.478H303.696V325.556H291.721V333.478Z" fill="#DBDBDB"/>
<path d="M291.721 350.398H303.696V342.476H291.721V350.398Z" fill="#DBDBDB"/>
<path d="M291.721 367.318H303.696V359.396H291.721V367.318Z" fill="#DBDBDB"/>
<path d="M291.721 384.239H303.696V376.317H291.721V384.239Z" fill="#DBDBDB"/>
<path d="M281.08 263.604H326.129V250.132H281.08V263.604Z" fill="#DBDBDB"/>
<path d="M281.08 250.132H309.64V241.792H281.08V250.132Z" fill="#EBEBEB"/>
<path d="M233.606 392.904H281.08V263.603H233.606V392.904Z" fill="#A6A6A6"/>
<path d="M248.213 375.053H238.465V382.975H248.213V375.053Z" fill="#C7C7C7"/>
<path d="M248.213 358.133H238.465V366.055H248.213V358.133Z" fill="#C7C7C7"/>
<path d="M248.213 341.212H238.465V349.135H248.213V341.212Z" fill="#C7C7C7"/>
<path d="M248.213 324.293H238.465V332.215H248.213V324.293Z" fill="#C7C7C7"/>
<path d="M248.213 307.372H238.465V315.294H248.213V307.372Z" fill="#C7C7C7"/>
<path d="M248.213 290.453H238.465V298.375H248.213V290.453Z" fill="#C7C7C7"/>
<path d="M248.213 273.532H238.465V281.454H248.213V273.532Z" fill="#C7C7C7"/>
<path d="M262.235 375.053H252.487V382.975H262.235V375.053Z" fill="#C7C7C7"/>
<path d="M262.235 358.133H252.487V366.055H262.235V358.133Z" fill="#C7C7C7"/>
<path d="M262.235 341.212H252.487V349.135H262.235V341.212Z" fill="#C7C7C7"/>
<path d="M262.235 324.293H252.487V332.215H262.235V324.293Z" fill="#C7C7C7"/>
<path d="M262.235 307.372H252.487V315.294H262.235V307.372Z" fill="#C7C7C7"/>
<path d="M262.235 290.453H252.487V298.375H262.235V290.453Z" fill="#C7C7C7"/>
<path d="M262.235 273.532H252.487V281.454H262.235V273.532Z" fill="#C7C7C7"/>
<path d="M276.221 375.053H266.474V382.975H276.221V375.053Z" fill="#C7C7C7"/>
<path d="M276.221 358.133H266.474V366.055H276.221V358.133Z" fill="#C7C7C7"/>
<path d="M276.221 341.212H266.474V349.135H276.221V341.212Z" fill="#C7C7C7"/>
<path d="M276.221 324.293H266.474V332.215H276.221V324.293Z" fill="#C7C7C7"/>
<path d="M276.221 307.372H266.474V315.294H276.221V307.372Z" fill="#C7C7C7"/>
<path d="M276.221 290.453H266.474V298.375H276.221V290.453Z" fill="#C7C7C7"/>
<path d="M276.221 273.532H266.474V281.454H276.221V273.532Z" fill="#C7C7C7"/>
<path d="M240.798 263.604H281.08V250.132H240.798V263.604Z" fill="#C7C7C7"/>
<path d="M259.252 250.132H281.08V241.792H259.252V250.132Z" fill="#DBDBDB"/>
<path d="M57.1771 392.903C253.263 392.34 473.224 392.336 669.309 392.903C473.223 393.471 253.262 393.467 57.1771 392.903Z" fill="#263238"/>
<path d="M94.0766 346.597H158.305C158.305 346.597 126.588 268.846 108.257 268.846C89.9288 268.846 94.0766 346.597 94.0766 346.597Z" fill="#263238"/>
<path opacity="0.3" d="M94.0766 346.597H158.305C158.305 346.597 126.588 268.846 108.257 268.846C89.9288 268.846 94.0766 346.597 94.0766 346.597Z" fill="black"/>
<path d="M241.455 366.431H326.912C326.912 366.431 301.264 269.57 271.359 269.57C241.454 269.57 241.455 366.431 241.455 366.431Z" fill="#263238"/>
<path opacity="0.3" d="M241.455 366.431H326.912C326.912 366.431 301.264 269.57 271.359 269.57C241.454 269.57 241.455 366.431 241.455 366.431Z" fill="black"/>
<path d="M490.202 203.707C489.071 203.707 485.491 203.707 484.683 203.707C483.875 203.707 482.672 208.214 482.672 209.533C482.672 210.852 486.073 216.53 486.437 216.184C486.802 215.837 511.129 216.184 514.71 216.184C518.29 216.184 533.996 213.319 536.074 211.425C538.153 209.533 540.001 203.405 539.77 201.522C539.539 199.64 531.455 193.046 523.371 190.517C515.287 187.989 501.082 188.429 498.426 188.649C495.769 188.869 491.357 197.826 490.573 199.694C489.788 201.563 490.202 203.707 490.202 203.707Z" fill="#263238"/>
<path d="M492.704 201.525C492.881 203.023 496.341 208.972 497.736 209.091C511.239 210.301 531.285 208.764 538.129 208.159C539.213 205.7 539.921 202.735 539.765 201.525C539.536 199.641 531.451 193.047 523.366 190.518C515.281 187.99 501.08 188.426 498.424 188.644C497.621 188.714 496.673 189.566 495.704 190.776C495.694 190.786 495.694 190.805 495.683 190.815C491.902 198.084 492.538 200.028 492.704 201.525Z" fill="#FFC727"/>
<path d="M516.961 209.543L537.942 208.566L537.952 208.546C538.358 207.673 538.723 206.722 539.005 205.799C535.974 205.978 521.431 206.573 520.253 206.95C518.95 207.356 516.961 209.543 516.961 209.543Z" fill="#DBDBDB"/>
<path d="M364.365 357.538C364.365 393.138 344.467 421.994 319.925 421.994H288.157V293.081H319.925C344.466 293.081 364.365 321.937 364.365 357.538Z" fill="#37474F"/>
<path d="M288.146 421.999C312.682 421.999 332.572 393.139 332.572 357.539C332.572 321.939 312.682 293.079 288.146 293.079C263.61 293.079 243.72 321.939 243.72 357.539C243.72 393.139 263.61 421.999 288.146 421.999Z" fill="#263238"/>
<path d="M288.146 404.605C306.061 404.605 320.584 383.533 320.584 357.539C320.584 331.545 306.061 310.473 288.146 310.473C270.231 310.473 255.707 331.545 255.707 357.539C255.707 383.533 270.231 404.605 288.146 404.605Z" fill="#DBDBDB"/>
<path d="M288.146 400.936C304.665 400.936 318.056 381.507 318.056 357.539C318.056 333.571 304.665 314.142 288.146 314.142C271.627 314.142 258.236 333.571 258.236 357.539C258.236 381.507 271.627 400.936 288.146 400.936Z" fill="#A6A6A6"/>
<path d="M294.43 354.975C292.8 353.077 291.273 350.686 289.397 348.441C291.185 347.905 292.171 341.53 288.299 333.566C285.134 325.886 277.111 316.617 277.226 316.851C278.327 315.884 279.327 314.709 280.307 313.284C290.391 327.539 290.896 330.514 293.453 331.672C295.411 331.982 296.735 331.195 295.99 313.284C298.103 315.112 300.039 316.912 301.83 318.569C301.664 318.407 301.172 331.708 299.364 339.553C297.756 348.401 294.831 351.792 294.43 354.975Z" fill="#DBDBDB"/>
<path d="M288.695 348.339C286.91 350.018 284.787 351.352 282.664 353.217C282.745 350.973 279.283 346.931 272.605 350.149C266.435 352.315 257.05 361.742 257.009 362.144C256.982 359.586 256.951 357.027 256.918 354.461C270.165 344.397 271.946 345.157 273.901 341.844C275.259 339.19 272.225 335.292 263.864 329.592C265.526 327.724 266.898 326.084 267.921 324.443C267.601 324.576 276.859 331.636 280.803 336.701C285.295 341.832 286.889 346.887 288.695 348.339Z" fill="#DBDBDB"/>
<path d="M282.359 354.138C282.864 357.058 283.051 360.311 283.617 363.735C282.159 363.038 278.302 366.445 278.411 376.576C277.958 385.675 281.473 401.497 281.783 401.795C279.644 400.079 277.669 398.365 275.84 396.759C273.784 377.523 274.753 375.035 273.3 371.523C272.064 368.968 268.84 372.241 262.708 381.645C261.974 379.791 261.187 378.395 260.197 377.362C260.287 377.436 267.644 365.375 272.197 361.359C276.975 356.488 280.726 356.4 282.359 354.138Z" fill="#DBDBDB"/>
<path d="M284.134 364.414C286.253 364.556 288.493 365.236 290.966 365.464C289.702 367.39 291.347 373.256 297.081 376.608C302.212 380.279 314.858 382.256 314.806 382.128C313.014 384.174 311.479 385.93 310.267 387.612C300.264 383.679 294.859 381.006 292.747 381.942C291.312 383.187 290.274 384.72 297.696 398.281C296.581 399.238 295.542 400.4 294.503 401.794C294.293 401.354 288.115 388.976 286.249 380.922C283.656 372.07 285.373 367.544 284.134 364.414Z" fill="#DBDBDB"/>
<path d="M291.597 364.957C292.417 362.121 293.612 359.289 294.564 355.974C295.437 358.487 299.901 357.301 303.837 350.739C307.819 344.952 312.563 329.738 312.469 330.191C313.224 332.324 313.977 333.959 314.893 335.184C309.323 347.964 306.157 354.429 306.184 357.552C306.678 359.826 307.168 361.897 319.372 354.476C319.339 357.084 319.302 359.689 319.264 362.288C318.98 362.346 309.018 366.802 303.163 366.914C296.565 367.744 294.075 364.228 291.597 364.957Z" fill="#DBDBDB"/>
<path d="M292.881 363.446C290.435 367.176 286.41 367.431 283.866 364.094C281.297 360.723 281.212 354.982 283.621 351.308C286.047 347.613 290.028 347.304 292.596 350.603C295.191 353.939 295.314 359.742 292.881 363.446Z" fill="#DBDBDB"/>
<path d="M630.284 342.321C630.284 377.922 610.386 406.777 585.844 406.777H554.076V277.865H585.844C610.386 277.865 630.284 306.721 630.284 342.321Z" fill="#37474F"/>
<path d="M554.064 406.783C578.6 406.783 598.49 377.923 598.49 342.323C598.49 306.723 578.6 277.863 554.064 277.863C529.529 277.863 509.639 306.723 509.639 342.323C509.639 377.923 529.529 406.783 554.064 406.783Z" fill="#263238"/>
<path d="M554.064 389.389C571.98 389.389 586.503 368.317 586.503 342.323C586.503 316.329 571.98 295.257 554.064 295.257C536.149 295.257 521.626 316.329 521.626 342.323C521.626 368.317 536.149 389.389 554.064 389.389Z" fill="#DBDBDB"/>
<path d="M554.064 385.72C570.583 385.72 583.974 366.291 583.974 342.323C583.974 318.355 570.583 298.926 554.064 298.926C537.546 298.926 524.155 318.355 524.155 342.323C524.155 366.291 537.546 385.72 554.064 385.72Z" fill="#A6A6A6"/>
<path d="M560.349 339.759C558.719 337.861 557.191 335.47 555.316 333.225C557.104 332.689 558.09 326.314 554.218 318.351C551.053 310.671 543.031 301.401 543.145 301.635C544.246 300.668 545.247 299.493 546.227 298.068C556.311 312.323 556.815 315.298 559.372 316.456C561.331 316.766 562.655 315.979 561.91 298.068C564.023 299.896 565.959 301.696 567.749 303.353C567.584 303.191 567.092 316.492 565.283 324.337C563.675 333.185 560.751 336.576 560.349 339.759Z" fill="#DBDBDB"/>
<path d="M554.614 333.123C552.83 334.802 550.706 336.136 548.583 338.001C548.665 335.757 545.202 331.715 538.525 334.933C532.355 337.099 522.969 346.526 522.929 346.929C522.902 344.37 522.871 341.81 522.837 339.245C536.085 329.181 537.865 329.941 539.821 326.628C541.178 323.975 538.145 320.077 529.783 314.376C531.446 312.508 532.818 310.868 533.84 309.227C533.52 309.36 542.779 316.421 546.723 321.485C551.215 326.616 552.808 331.671 554.614 333.123Z" fill="#DBDBDB"/>
<path d="M548.278 338.921C548.784 341.841 548.97 345.094 549.537 348.518C548.079 347.821 544.221 351.229 544.33 361.36C543.878 370.459 547.393 386.28 547.703 386.578C545.564 384.862 543.589 383.148 541.76 381.543C539.704 362.306 540.672 359.819 539.22 356.306C537.983 353.751 534.76 357.025 528.627 366.428C527.893 364.574 527.107 363.179 526.117 362.145C526.207 362.219 533.564 350.158 538.117 346.142C542.894 341.272 546.645 341.184 548.278 338.921Z" fill="#DBDBDB"/>
<path d="M550.054 349.198C552.173 349.34 554.412 350.02 556.886 350.248C555.622 352.174 557.267 358.04 563.001 361.392C568.132 365.063 580.777 367.04 580.725 366.912C578.933 368.958 577.398 370.714 576.187 372.396C566.183 368.463 560.779 365.79 558.666 366.726C557.231 367.971 556.194 369.504 563.616 383.065C562.5 384.022 561.461 385.184 560.423 386.578C560.212 386.138 554.034 373.76 552.169 365.706C549.575 356.855 551.292 352.328 550.054 349.198Z" fill="#DBDBDB"/>
<path d="M557.516 349.741C558.337 346.906 559.532 344.073 560.484 340.758C561.357 343.271 565.82 342.085 569.757 335.523C573.738 329.737 578.483 314.523 578.389 314.975C579.144 317.108 579.897 318.744 580.812 319.968C575.243 332.748 572.077 339.214 572.104 342.336C572.598 344.61 573.088 346.681 585.292 339.26C585.259 341.869 585.221 344.473 585.183 347.072C584.899 347.13 574.937 351.587 569.082 351.698C562.485 352.528 559.994 349.012 557.516 349.741Z" fill="#DBDBDB"/>
<path d="M558.801 348.23C556.354 351.96 552.329 352.215 549.786 348.878C547.218 345.507 547.133 339.766 549.541 336.092C551.968 332.397 555.948 332.088 558.517 335.387C561.109 338.723 561.234 344.526 558.801 348.23Z" fill="#DBDBDB"/>
<path d="M168.091 342.451C168.091 370.454 160.413 393.151 150.942 393.151H116.665V291.75H150.942C160.413 291.75 168.091 314.449 168.091 342.451Z" fill="#37474F"/>
<path d="M116.661 393.156C126.129 393.156 133.805 370.455 133.805 342.453C133.805 314.45 126.129 291.75 116.661 291.75C107.193 291.75 99.5178 314.45 99.5178 342.453C99.5178 370.455 107.193 393.156 116.661 393.156Z" fill="#263238"/>
<path d="M116.661 379.473C123.574 379.473 129.178 362.898 129.178 342.452C129.178 322.006 123.574 305.432 116.661 305.432C109.748 305.432 104.144 322.006 104.144 342.452C104.144 362.898 109.748 379.473 116.661 379.473Z" fill="#DBDBDB"/>
<path d="M116.661 376.588C123.035 376.588 128.203 361.305 128.203 342.453C128.203 323.6 123.035 308.317 116.661 308.317C110.287 308.317 105.12 323.6 105.12 342.453C105.12 361.305 110.287 376.588 116.661 376.588Z" fill="#A6A6A6"/>
<path d="M119.086 340.435C118.456 338.942 117.868 337.061 117.144 335.295C117.834 334.874 118.214 329.859 116.72 323.594C115.499 317.554 112.403 310.262 112.448 310.447C112.873 309.687 113.259 308.762 113.637 307.642C117.527 318.854 117.723 321.194 118.71 322.105C119.465 322.349 119.976 321.73 119.689 307.642C120.505 309.08 121.252 310.495 121.942 311.798C121.878 311.671 121.689 322.133 120.99 328.304C120.369 335.264 119.241 337.932 119.086 340.435Z" fill="#DBDBDB"/>
<path d="M116.873 335.216C116.185 336.536 115.365 337.586 114.545 339.053C114.576 337.289 113.24 334.109 110.664 336.64C108.283 338.344 104.661 345.759 104.646 346.076C104.635 344.064 104.624 342.05 104.611 340.032C109.723 332.117 110.41 332.714 111.165 330.108C111.689 328.021 110.518 324.955 107.292 320.471C107.933 319.001 108.462 317.712 108.858 316.42C108.734 316.525 112.306 322.078 113.829 326.062C115.561 330.097 116.176 334.073 116.873 335.216Z" fill="#DBDBDB"/>
<path d="M114.428 339.776C114.624 342.074 114.695 344.632 114.914 347.326C114.351 346.778 112.862 349.458 112.905 357.427C112.73 364.583 114.087 377.028 114.206 377.263C113.38 375.913 112.619 374.565 111.913 373.302C111.12 358.171 111.494 356.214 110.933 353.451C110.456 351.442 109.211 354.016 106.845 361.413C106.562 359.955 106.258 358.857 105.876 358.045C105.911 358.103 108.75 348.616 110.507 345.457C112.351 341.626 113.798 341.557 114.428 339.776Z" fill="#DBDBDB"/>
<path d="M115.114 347.859C115.931 347.971 116.796 348.505 117.75 348.685C117.262 350.2 117.897 354.814 120.109 357.45C122.089 360.337 126.969 361.893 126.949 361.793C126.258 363.402 125.665 364.784 125.198 366.107C121.338 363.013 119.252 360.91 118.437 361.646C117.883 362.625 117.483 363.831 120.347 374.499C119.917 375.251 119.516 376.166 119.115 377.263C119.033 376.917 116.65 367.18 115.929 360.845C114.929 353.883 115.591 350.321 115.114 347.859Z" fill="#DBDBDB"/>
<path d="M117.993 348.287C118.31 346.057 118.771 343.829 119.139 341.221C119.476 343.198 121.198 342.265 122.717 337.103C124.254 332.552 126.085 320.585 126.048 320.941C126.339 322.618 126.63 323.905 126.983 324.868C124.834 334.92 123.612 340.007 123.623 342.462C123.813 344.252 124.003 345.88 128.712 340.044C128.7 342.095 128.685 344.144 128.671 346.188C128.562 346.234 124.717 349.74 122.457 349.827C119.91 350.478 118.949 347.714 117.993 348.287Z" fill="#DBDBDB"/>
<path d="M118.488 347.098C117.544 350.031 115.991 350.233 115.009 347.608C114.018 344.957 113.986 340.441 114.915 337.551C115.851 334.644 117.386 334.402 118.378 336.996C119.379 339.62 119.428 344.185 118.488 347.098Z" fill="#DBDBDB"/>
<path d="M432.939 342.451C432.939 370.454 425.261 393.151 415.789 393.151H381.512V291.75H415.789C425.261 291.75 432.939 314.449 432.939 342.451Z" fill="#37474F"/>
<path d="M381.509 393.156C390.977 393.156 398.652 370.455 398.652 342.453C398.652 314.45 390.977 291.75 381.509 291.75C372.041 291.75 364.365 314.45 364.365 342.453C364.365 370.455 372.041 393.156 381.509 393.156Z" fill="#263238"/>
<path d="M381.509 379.473C388.422 379.473 394.026 362.898 394.026 342.452C394.026 322.006 388.422 305.432 381.509 305.432C374.596 305.432 368.992 322.006 368.992 342.452C368.992 362.898 374.596 379.473 381.509 379.473Z" fill="#DBDBDB"/>
<path d="M381.509 376.588C387.883 376.588 393.05 361.305 393.05 342.453C393.05 323.6 387.883 308.317 381.509 308.317C375.134 308.317 369.967 323.6 369.967 342.453C369.967 361.305 375.134 376.588 381.509 376.588Z" fill="#A6A6A6"/>
<path d="M383.933 340.435C383.304 338.942 382.715 337.061 381.991 335.295C382.681 334.874 383.061 329.859 381.568 323.594C380.347 317.554 377.251 310.262 377.295 310.447C377.72 309.687 378.106 308.762 378.484 307.642C382.375 318.854 382.57 321.194 383.557 322.105C384.313 322.349 384.823 321.73 384.536 307.642C385.352 309.08 386.099 310.495 386.789 311.798C386.726 311.671 386.536 322.133 385.838 328.304C385.217 335.264 384.088 337.932 383.933 340.435Z" fill="#DBDBDB"/>
<path d="M381.72 335.216C381.032 336.536 380.212 337.586 379.393 339.053C379.424 337.289 378.088 334.109 375.512 336.64C373.131 338.344 369.509 345.759 369.493 346.076C369.483 344.064 369.471 342.05 369.458 340.032C374.57 332.117 375.257 332.714 376.012 330.108C376.536 328.021 375.366 324.955 372.139 320.471C372.78 319.001 373.31 317.712 373.705 316.42C373.581 316.525 377.154 322.078 378.676 326.062C380.409 330.097 381.023 334.073 381.72 335.216Z" fill="#DBDBDB"/>
<path d="M379.275 339.776C379.47 342.074 379.542 344.632 379.76 347.326C379.197 346.778 377.709 349.458 377.751 357.427C377.576 364.583 378.934 377.028 379.052 377.263C378.227 375.913 377.465 374.565 376.76 373.302C375.966 358.171 376.34 356.214 375.779 353.451C375.302 351.442 374.059 354.016 371.691 361.413C371.408 359.955 371.105 358.857 370.723 358.045C370.758 358.103 373.597 348.616 375.353 345.457C377.197 341.626 378.645 341.557 379.275 339.776Z" fill="#DBDBDB"/>
<path d="M379.961 347.859C380.779 347.971 381.643 348.505 382.597 348.685C382.109 350.2 382.744 354.814 384.957 357.45C386.936 360.337 391.816 361.893 391.797 361.793C391.105 363.402 390.513 364.784 390.045 366.107C386.185 363.013 384.099 360.91 383.284 361.646C382.73 362.625 382.33 363.831 385.194 374.499C384.764 375.251 384.363 376.166 383.962 377.263C383.881 376.917 381.497 367.18 380.777 360.845C379.775 353.883 380.439 350.321 379.961 347.859Z" fill="#DBDBDB"/>
<path d="M382.84 348.287C383.157 346.057 383.618 343.829 383.985 341.221C384.323 343.198 386.044 342.265 387.564 337.103C389.101 332.552 390.931 320.585 390.895 320.941C391.186 322.618 391.477 323.905 391.829 324.868C389.681 334.92 388.459 340.007 388.468 342.462C388.659 344.252 388.848 345.88 393.558 340.044C393.545 342.095 393.531 344.144 393.516 346.188C393.407 346.234 389.563 349.74 387.303 349.827C384.758 350.478 383.797 347.714 382.84 348.287Z" fill="#DBDBDB"/>
<path d="M383.336 347.098C382.391 350.031 380.839 350.233 379.857 347.608C378.866 344.957 378.833 340.441 379.762 337.551C380.699 334.644 382.234 334.402 383.225 336.996C384.227 339.62 384.275 344.185 383.336 347.098Z" fill="#DBDBDB"/>
<path d="M91.2472 345.773C91.2472 345.773 91.4251 281.968 94.1974 261.084C96.9697 240.2 102.05 229.868 103.205 228.549C104.361 227.229 108.98 217.777 110.596 215.139C112.214 212.501 121.221 205.466 121.914 204.367C122.607 203.268 137.034 178.266 139.119 174.581C139.927 173.152 140.62 168.315 142.352 165.787C144.085 163.259 155.402 155.785 179.077 146.992C202.752 138.198 234.857 135.121 243.865 134.572C252.873 134.022 397.691 133.363 424.946 139.408C452.202 145.453 517.988 203.67 525.19 208.655C526.46 209.534 567.92 215.36 580.162 221.075C592.403 226.791 600.487 232.176 600.487 232.176C600.487 232.176 615.154 251.631 615.616 252.181C616.078 252.73 622.314 258.117 623.123 260.204C623.931 262.292 626.934 275.592 627.511 276.911C628.088 278.23 632.939 288.892 633.286 292.959C633.632 297.025 633.286 312.304 633.286 312.963C633.286 313.623 635.133 323.295 635.133 330C635.133 336.705 633.863 364.074 633.863 365.887C633.863 367.7 324.011 374.57 322.394 374.13C320.777 373.691 313.155 276.031 266.036 276.031C244.555 276.031 235.862 310.764 243.253 366.381L140.155 353.411C140.155 353.411 126.159 270.065 106.132 276.823C95.2887 280.482 91.4782 307.357 92.5251 346.196L91.2472 345.773Z" fill="#FFC727"/>
<path d="M635.137 329.997C635.137 336.71 633.866 364.078 633.866 365.882C633.866 367.697 324.017 374.569 322.391 374.132C320.776 373.696 313.16 276.033 266.037 276.033C244.553 276.033 235.864 310.769 243.251 366.377L140.159 353.407C140.159 353.407 126.156 270.064 106.133 276.826C95.2869 280.485 91.4735 307.358 92.5262 346.198L91.2444 345.771C91.2444 345.771 91.4213 281.962 94.1926 261.079C96.964 240.196 102.049 229.863 103.205 228.545C104.361 227.226 108.976 217.776 110.592 215.139C112.217 212.501 121.219 205.46 121.917 204.37C121.969 204.291 122.094 204.082 122.281 203.755C124.656 199.71 137.191 177.994 139.118 174.583C139.931 173.145 140.618 168.316 142.358 165.788C144.088 163.26 155.402 155.783 179.073 146.987C202.755 138.202 234.854 135.118 243.866 134.572C252.878 134.017 397.697 133.363 424.952 139.401C452.208 145.45 517.99 203.666 525.19 208.654C526.461 209.537 567.916 215.358 580.159 221.069C592.4 226.79 600.485 232.175 600.485 232.175C600.485 232.175 615.155 251.63 615.613 252.176C616.082 252.732 622.312 258.115 623.125 260.208C623.927 262.29 626.938 275.587 627.511 276.906C628.095 278.225 632.939 288.894 633.283 292.96C633.638 297.025 633.283 312.305 633.283 312.96C633.283 313.626 635.137 323.294 635.137 329.997Z" fill="#FFC727"/>
<path opacity="0.1" d="M635.137 329.997C635.137 336.71 633.866 364.078 633.866 365.882C633.866 367.697 324.017 374.569 322.391 374.132C320.776 373.696 313.16 276.033 266.037 276.033C244.553 276.033 235.864 310.769 243.251 366.377L140.159 353.407C140.159 353.407 126.156 270.063 106.133 276.826C95.2869 280.485 91.4735 307.357 92.5262 346.198L91.2444 345.771C91.2444 345.771 91.4213 281.962 94.1926 261.079C96.964 240.196 102.049 229.863 103.205 228.545C104.361 227.225 108.976 217.776 110.592 215.139C112.217 212.501 121.219 205.46 121.917 204.37C121.969 204.291 122.094 204.082 122.281 203.755L253.795 214.207L278.738 211.401C278.738 211.401 416.169 238.273 427.484 239.433C438.809 240.583 590.213 237.449 594.536 236.627C598.87 235.804 600.484 232.174 600.484 232.174C600.484 232.174 615.154 251.629 615.612 252.175C616.081 252.731 622.311 258.114 623.124 260.207C623.926 262.289 626.937 275.586 627.511 276.905C628.094 278.224 632.938 288.893 633.282 292.959C633.637 297.024 633.282 312.304 633.282 312.959C633.283 313.625 635.137 323.294 635.137 329.997Z" fill="black"/>
<path opacity="0.1" d="M140.159 353.408C140.159 353.408 145.699 291.99 154.361 280.448C163.023 268.907 220.708 275.482 227.132 283.086C234.924 292.311 239.026 365.846 239.026 365.846L140.159 353.408Z" fill="black"/>
<path d="M278.74 211.402C278.74 211.402 266.751 168.462 255.701 146.112C254.314 143.309 389.552 137.057 442.617 146.112C448.306 147.083 478.09 165.938 528.712 208.764C529.751 209.644 498.224 207.94 418.365 208.269C338.506 208.599 282.206 211.731 278.74 211.402Z" fill="#263238"/>
<path d="M283.534 208.424C283.534 208.424 272 168.579 261.369 147.841C260.036 145.24 392.22 139.438 443.269 147.841C448.742 148.741 475.312 166.237 524.012 205.976C525.011 206.792 494.681 205.212 417.855 205.517C341.029 205.824 286.867 208.73 283.534 208.424Z" fill="#37474F"/>
<path opacity="0.4" d="M513.282 206.145C500.915 201.504 483.682 195.088 459.699 186.193C387.29 159.352 311.556 164.779 269.173 165.68C267.518 161.01 263.007 151.041 261.37 147.839C260.036 145.241 392.217 139.44 443.268 147.839C448.738 148.741 475.316 166.232 524.013 205.975C524.357 206.254 520.992 206.254 513.282 206.145Z" fill="#455A64"/>
<path d="M264.938 210.742C265.835 210.23 256.648 165.417 245.074 153.477C230.985 138.941 179.189 155.098 158.806 164.908C157.895 165.346 144.456 180.818 144.197 181.478C143.937 182.137 143.331 194.008 144.976 198.048C146.621 202.088 150.173 204.973 152.771 206.044C155.369 207.116 241.032 216.102 244.323 216.184C247.615 216.266 264.072 211.237 264.938 210.742Z" fill="#263238"/>
<path d="M253.922 182.668C251.456 171.72 246.116 160.808 241.187 155.856C227.93 142.535 179.193 157.342 160.013 166.331C159.157 166.733 146.511 180.911 146.266 181.516C146.022 182.12 145.824 192.095 147.372 195.797C148.921 199.498 152.263 202.142 154.707 203.125C157.152 204.107 237.563 212.198 240.63 211.781C242.252 211.558 254.446 184.993 253.922 182.668Z" fill="#37474F"/>
<path opacity="0.4" d="M248.003 166.045C203.453 165.767 169.468 178.797 146.224 189.01C146.006 185.391 146.13 181.871 146.266 181.514C146.516 180.909 159.154 166.729 160.018 166.333C179.188 157.339 227.926 142.534 241.189 155.851C243.491 158.161 245.867 161.751 248.003 166.045Z" fill="#455A64"/>
<path d="M148.919 200.646C149.119 199.835 156.266 186.196 158.75 181.58C161.233 176.963 171.799 160.806 172.146 160.696C172.492 160.586 175.871 158.922 175.652 159.439C175.434 159.956 162.747 179.947 161.868 181.927C160.538 184.922 152.521 203.428 152.521 203.428L148.919 200.646Z" fill="#263238"/>
<path d="M188.92 207.672C188.92 207.672 192.905 189.934 196.715 178.145C200.527 166.357 208.062 151.313 208.236 151.23C208.41 151.147 216.551 150.117 216.811 150.117C217.071 150.117 207.774 170.753 205.464 177.623C203.155 184.492 199.546 208.838 199.358 208.838C199.17 208.838 189.642 207.768 188.92 207.672Z" fill="#263238"/>
<g opacity="0.2">
<path d="M211.874 151.298C210.033 155.897 208.126 160.47 206.218 165.044C204.611 169.1 201.919 174.693 200.757 178.807C198.437 187.053 196.229 199.187 194.424 207.672C195.884 197.923 197.518 188.181 200.059 178.624C203.31 169.263 207.801 160.355 211.874 151.298Z" fill="black"/>
</g>
<g opacity="0.2">
<path d="M173.243 160.751C169.858 166.475 164.75 174.674 161.178 180.411C157.885 186.068 153.997 195.107 151.07 201.035C154.11 194.02 156.981 186.889 160.751 180.197C164.387 174.462 169.527 166.332 173.243 160.751Z" fill="black"/>
</g>
<path d="M588.247 258.774C589.926 259.117 600.488 269.437 600.488 270.975C600.488 272.514 582.703 306.148 576.005 310.984C569.306 315.821 470.681 315.601 468.14 314.941C465.599 314.281 431.415 278.229 430.722 275.372C430.029 272.514 444.35 261.303 446.428 261.083C448.507 260.863 583.396 257.784 588.247 258.774Z" fill="#263238"/>
<path d="M600.485 270.975C600.485 271.471 598.662 275.249 595.954 280.326C594.745 282.617 593.349 285.165 591.87 287.793C590.151 290.827 588.317 293.971 586.483 296.945C584.952 299.433 583.431 301.793 581.993 303.866C579.649 307.257 577.534 309.876 576.002 310.986C569.303 315.825 470.68 315.597 468.138 314.943C467.336 314.725 463.345 310.967 458.251 305.83C456.178 303.728 453.906 301.388 451.594 298.978C448.937 296.212 446.239 293.346 443.686 290.59C441.091 287.794 438.664 285.116 436.622 282.805C433.214 278.948 430.902 276.092 430.725 275.368C430.653 275.061 430.746 274.664 430.986 274.198C431.882 272.393 434.81 269.527 437.904 266.93C441.55 263.865 445.427 261.188 446.427 261.08C448.511 260.862 583.401 257.788 588.246 258.779C589.1 258.947 592.216 261.664 595.08 264.52C597.507 266.92 599.757 269.399 600.341 270.53C600.433 270.718 600.485 270.867 600.485 270.975Z" fill="#263238"/>
<path d="M600.339 270.529C594.995 271.352 584.222 272.968 581.898 273.067C578.773 273.196 461.157 275.169 456.822 275.011C453.78 274.893 439.34 274.456 430.984 274.198C431.88 272.393 434.808 269.527 437.902 266.93C445.248 267.663 454.145 268.418 455.437 268.418C457.511 268.418 576.699 267.129 579.648 267.108C581.587 267.098 589.733 265.562 595.078 264.521C597.505 266.92 599.755 269.399 600.339 270.529Z" fill="#37474F"/>
<path d="M595.954 280.326C594.745 282.617 593.349 285.165 591.87 287.793C587.504 288.418 583.264 288.993 581.899 289.052C578.774 289.191 461.158 291.165 456.823 290.995C455.083 290.936 449.614 290.757 443.686 290.589C441.091 287.793 438.664 285.116 436.622 282.805C444.175 283.558 454.072 284.401 455.437 284.401C457.511 284.401 576.699 283.122 579.648 283.102C581.69 283.093 590.682 281.368 595.954 280.326Z" fill="#37474F"/>
<path d="M586.483 296.946C584.951 299.434 583.43 301.794 581.993 303.867C581.962 303.877 581.93 303.877 581.899 303.877C578.929 303.996 472.44 305.801 458.251 305.83C456.178 303.728 453.906 301.388 451.594 298.978C453.563 299.127 454.98 299.226 455.438 299.226C457.512 299.226 576.7 297.937 579.649 297.927C580.659 297.917 583.367 297.49 586.483 296.946Z" fill="#37474F"/>
<path d="M92.5261 346.197C92.5261 346.197 89.9442 269.303 104.611 262.292C119.278 255.281 128.492 277.9 133.805 291.75C139.117 305.599 143.968 328.021 145.007 328.241C146.046 328.461 239.013 341.541 239.476 341.431C239.938 341.321 238.724 273.394 260.379 262.402C279.938 252.474 296.539 272.867 306.921 289.661C320.584 311.766 331.318 359.663 331.751 359.663C336.427 359.663 422.524 358.468 423.39 358.302C424.256 358.138 450.415 341.155 452.666 340.826C454.918 340.497 589.692 336.374 592.463 336.374C595.234 336.374 614.117 352.202 614.983 352.202C615.849 352.202 634.846 351.79 635.135 351.872C635.424 351.955 635.077 366.216 634.731 366.546C634.385 366.877 320.592 377.025 320.766 375.604C320.939 374.183 307.276 324.226 292.774 296.971C281.341 275.482 260.033 265.524 252.238 296.641C244.53 327.411 244.122 365.888 243.256 366.383C242.39 366.878 142.063 354.952 140.158 353.413C138.253 351.873 126.993 276.417 108.283 276.747C89.574 277.077 94.0786 346.598 94.0786 346.598L92.5261 346.197Z" fill="#263238"/>
<path d="M609.534 327.472C610.561 327.246 631.67 318.239 632.479 316.755C633.287 315.271 633.345 299.939 632.479 300.103C631.613 300.268 616.542 312.718 615.502 313.79C614.462 314.862 607.898 327.833 609.534 327.472Z" fill="#263238"/>
<path d="M610.824 331.017C610.551 330.235 632.349 322.773 633.106 322.608C633.864 322.444 634.73 332.415 634.037 333.282C633.344 334.15 618.273 336.787 617.06 336.458C615.848 336.128 611.344 332.5 610.824 331.017Z" fill="#263238"/>
<path d="M147.201 316.42L234.048 329.121C234.048 329.121 229.428 322.416 224.809 320.218C220.189 318.02 171.107 305.71 161.984 306.259C152.86 306.808 147.201 316.42 147.201 316.42Z" fill="#FFC727"/>
<path d="M96.1559 274.603C96.1559 274.603 98.1191 256.796 105.741 252.07C113.923 246.997 121.447 253.059 127.684 265.04C132.739 274.753 137.616 298.235 137.616 298.235C137.616 298.235 128.203 269.657 116.874 261.024C112.282 257.526 106.348 258.582 103.201 261.633C98.3502 266.336 96.1559 274.603 96.1559 274.603Z" fill="#FFC727"/>
<path d="M124.103 216.199C135.421 217.557 171.684 224.482 187.621 227.999C203.558 231.516 250.331 243.025 250.331 243.025C250.331 243.025 239.129 244.816 236.357 244.706C233.586 244.597 155.747 231.956 150.782 231.187C145.815 230.417 124.103 216.199 124.103 216.199Z" fill="#FFC727"/>
<g opacity="0.1">
<path d="M320.779 231.186C311.923 229.79 303.15 228.011 294.402 226.107C289.251 224.808 283.916 223.89 278.981 221.887C278.765 221.781 278.38 221.547 278.432 221.201L278.436 221.002L278.505 217.801C278.585 215.667 278.632 213.534 278.741 211.4C278.851 213.534 278.898 215.667 278.978 217.801C278.989 217.971 279.043 221.221 279.056 221.283C279.079 221.249 279.006 221.177 279.036 221.203C279.288 221.381 279.698 221.522 280.024 221.637C284.799 223.095 289.728 224.109 294.623 225.213C302.011 226.873 313.497 229.418 320.779 231.186Z" fill="black"/>
<path d="M146.625 201.522C142.413 206.224 138.062 210.867 133.739 215.495C133.583 215.669 132.965 216.307 132.829 216.455C132.763 216.583 132.7 216.78 132.648 216.966C132.148 218.644 132.191 220.417 131.557 222.107C129.555 225.304 127.278 228.509 125.649 231.881C125.098 232.916 125.142 234.651 124.949 235.801C123.988 243.677 122.723 252.479 121.447 260.313C122.198 251.966 123.388 242.027 124.291 233.665C124.303 233.03 124.487 232.152 124.796 231.544C125.969 228.972 127.526 226.659 129.066 224.298C129.443 223.74 130.427 222.245 130.78 221.697C131.36 219.988 131.346 217.976 132.038 216.212C132.082 216.058 132.343 215.801 132.47 215.674C137.142 210.926 141.83 206.182 146.625 201.522Z" fill="black"/>
<path d="M189.464 210.568C186.796 215.179 182.668 221.201 180.498 225.934C180.508 227.94 180.705 231.525 180.761 233.57C180.75 235.101 180.942 236.638 180.602 238.229C180.139 239.205 179.746 240.927 179.445 241.982C178.393 246.059 177.288 250.201 176.594 254.34C176.325 257.263 176.268 272.286 176.187 275.48C175.884 268.401 175.491 261.344 175.763 254.251C176.427 250.017 177.477 245.912 178.509 241.757C178.836 240.633 179.246 238.951 179.74 237.908C179.976 236.563 179.879 235.035 179.882 233.586C179.855 231.486 179.657 227.94 179.735 225.867C182.239 220.591 186.197 215.442 189.464 210.568Z" fill="black"/>
<path d="M255.691 212.501C253.916 217.206 250.3 226.606 248.469 231.286C247.299 234.409 245.983 237.562 244.93 240.647C244.732 241.352 244.797 242.211 244.804 243.025C244.854 244.556 245.038 246.528 244.998 248.063C243.905 252.095 242.976 256.205 242.194 260.313C241.585 263.652 241.93 266.891 241.654 270.23C241.38 276.894 241.062 283.554 240.631 290.212L240.732 280.209C240.805 275.546 240.999 267.314 241.014 262.751C241.394 258.511 242.497 254.488 243.397 250.341C243.525 249.824 243.865 248.542 244.031 248.201C244.032 248.206 244.05 248.07 244.057 248.002C244.105 246.62 243.941 244.472 243.905 243.047C243.623 240.505 245.033 238.026 245.877 235.701C249.015 227.917 252.294 220.187 255.691 212.501Z" fill="black"/>
</g>
<path d="M349.419 297.135C349.419 297.135 410.166 308.549 419.405 313.284C428.644 318.019 443.195 326.617 443.195 326.617C443.195 326.617 487.944 326.617 533.968 326.617C580.394 326.617 597.255 320.878 597.255 320.878C597.255 320.878 610.882 300.213 614.347 297.136C617.811 294.059 630.284 286.936 630.284 286.936C630.284 286.936 630.284 290.786 628.206 293.082C626.126 295.377 618.504 300.433 616.888 302.192C615.271 303.951 604.185 324.835 603.954 325.714C603.723 326.594 603.492 331.43 602.336 332.09C601.181 332.749 440.885 337.368 437.882 336.487C434.88 335.607 415.939 320.879 410.858 319.339C405.776 317.8 351.728 303.292 351.728 303.292L349.419 297.135Z" fill="#FFC727"/>
<path d="M338.564 321.097C338.795 319.338 350.343 303.95 351.729 303.29C353.115 302.631 410.397 318.28 413.862 319.249C417.326 320.217 427.49 329.67 427.49 330.549C427.489 331.429 338.564 321.097 338.564 321.097Z" fill="#263238"/>
<path d="M340.411 326.676C340.112 325.693 425.409 337.145 425.64 338.024C425.871 338.904 414.323 346.378 412.013 346.378C409.703 346.378 358.658 343.52 355.655 341.981C352.652 340.442 341.104 328.958 340.411 326.676Z" fill="#263238"/>
<path d="M162.616 153.722C162.616 153.722 187.794 138.163 217.071 132.557C246.346 126.952 256.038 132.451 258.641 134.317C261.244 136.184 264.999 143.054 264.999 143.054L257.087 143.933C257.087 143.933 253.795 136.349 242.016 135.195C233.534 134.364 189.464 139.647 162.616 153.722Z" fill="#263238"/>
<path d="M442.618 146.112C442.618 146.112 430.376 136.178 419.174 134.23C407.971 132.282 371.478 135.47 371.478 135.47C371.478 135.47 401.531 135.397 415.825 137.845C424.948 139.407 436.184 145.139 436.184 145.139L442.618 146.112Z" fill="#263238"/>
<path d="M248.16 203.707C249.291 203.707 252.871 203.707 253.679 203.707C254.487 203.707 255.69 208.214 255.69 209.533C255.69 210.852 252.289 216.53 251.925 216.184C251.561 215.837 227.233 216.184 223.653 216.184C220.072 216.184 204.366 213.319 202.287 211.425C200.209 209.533 198.361 203.405 198.592 201.522C198.823 199.64 206.907 193.046 214.991 190.517C223.075 187.989 237.279 188.429 239.936 188.649C242.592 188.869 247.004 197.826 247.789 199.694C248.575 201.563 248.16 203.707 248.16 203.707Z" fill="#263238"/>
<path opacity="0.3" d="M248.16 203.707C249.291 203.707 252.871 203.707 253.679 203.707C254.487 203.707 255.69 208.214 255.69 209.533C255.69 210.852 252.289 216.53 251.925 216.184C251.561 215.837 227.233 216.184 223.653 216.184C220.072 216.184 204.366 213.319 202.287 211.425C200.209 209.533 198.361 203.405 198.592 201.522C198.823 199.64 206.907 193.046 214.991 190.517C223.075 187.989 237.279 188.429 239.936 188.649C242.592 188.869 247.004 197.826 247.789 199.694C248.575 201.563 248.16 203.707 248.16 203.707Z" fill="black"/>
<path d="M245.658 201.525C245.481 203.023 242.022 208.972 240.626 209.091C227.124 210.301 207.078 208.764 200.233 208.159C199.149 205.7 198.441 202.735 198.597 201.525C198.826 199.641 206.911 193.047 214.996 190.518C223.081 187.99 237.282 188.426 239.939 188.644C240.741 188.714 241.689 189.566 242.658 190.776C242.668 190.786 242.668 190.805 242.679 190.815C246.46 198.084 245.825 200.028 245.658 201.525Z" fill="#FFC727"/>
<path d="M221.401 209.543L200.42 208.566L200.41 208.546C200.004 207.673 199.638 206.722 199.357 205.799C202.39 205.978 216.932 206.573 218.109 206.95C219.412 207.356 221.401 209.543 221.401 209.543Z" fill="#DBDBDB"/>
<path d="M565.152 346.95L481.594 348.376V327.48L565.152 326.053V346.95Z" fill="white"/>
<path d="M410.166 272.075C411.57 272.075 434.187 257.346 435.342 255.807C436.497 254.268 326.091 229.428 322.857 229.208C319.623 228.988 302.993 234.924 303.455 236.242C303.917 237.562 319.161 257.346 325.629 260.863C332.096 264.381 403.929 272.075 410.166 272.075Z" fill="white"/>
<path d="M435.34 255.804C435.048 256.201 433.36 257.45 430.985 259.087V259.097C424.036 263.897 411.221 272.077 410.169 272.077C403.928 272.077 332.091 264.383 325.632 260.863C323.694 259.812 320.986 257.312 318.12 254.288C311.38 247.179 303.784 237.163 303.451 236.242C302.993 234.923 319.621 228.993 322.861 229.211C326.09 229.428 436.496 254.267 435.34 255.804Z" fill="white"/>
<path d="M430.985 259.086V259.096C424.036 263.896 411.221 272.076 410.169 272.076C403.928 272.076 332.091 264.382 325.632 260.862C323.694 259.811 320.985 257.311 318.12 254.287C320.735 251.223 331.506 238.67 334.633 238.898C369.395 241.428 429.339 258.461 430.985 259.086Z" fill="#EBEBEB"/>
<path d="M342.43 250.608C342.555 256.695 334.512 260.18 329.776 255.924C326.551 253.227 326.552 247.975 329.773 245.29C334.51 241.028 342.557 244.521 342.43 250.608ZM342.43 250.608C342.447 244.866 334.891 242.167 330.953 246.412C327.281 250.125 329.982 256.578 335.361 256.879C339.018 257.245 342.515 254.161 342.43 250.608Z" fill="white"/>
<path d="M360.221 250.638C360.335 255.988 353.273 259.088 349.077 255.359C346.195 252.975 346.196 248.289 349.074 245.915C353.27 242.181 360.336 245.287 360.221 250.638ZM360.221 250.638C359.957 243.381 349.037 243.508 348.818 250.638C349.031 257.779 359.958 257.896 360.221 250.638Z" fill="white"/>
<path d="M593.328 254.269C592.387 255.539 605.339 268.338 606.263 268.338C607.187 268.338 621.507 262.403 623.124 260.204C624.741 258.006 619.89 242.837 618.966 241.299C618.042 239.761 604.442 237.418 604.646 237.688C604.85 237.957 595.493 251.349 593.328 254.269Z" fill="white"/>
<path d="M623.125 260.207C622.729 260.752 621.551 261.525 619.978 262.378C614.55 264.322 607.257 266.821 606.237 266.513C601.507 265.096 594.63 254.188 594.63 254.188C599.048 250.767 610.216 240.058 610.966 238.729C614.582 239.483 618.489 240.494 618.968 241.298C619.895 242.835 624.74 258.005 623.125 260.207Z" fill="#EBEBEB"/>
<path d="M620.526 249.995C620.462 258.055 611.894 257.711 611.591 249.995C611.887 242.269 620.466 241.933 620.526 249.995ZM620.526 249.995C620.229 243.474 613.577 243.18 613.523 249.995C613.569 256.821 620.232 256.518 620.526 249.995Z" fill="white"/>
<path d="M137.387 236.831L133.765 236.37C131.838 236.126 130.486 234.44 130.743 232.608L131.188 229.44C131.445 227.606 133.216 226.319 135.141 226.564L138.763 227.025C140.69 227.27 142.042 228.955 141.785 230.788L141.34 233.955C141.083 235.788 139.313 237.076 137.387 236.831Z" fill="#FFC727"/>
<path d="M143.678 234.605L128.614 232.688C128.086 232.621 127.715 232.159 127.785 231.657L128 230.132C128.07 229.629 128.556 229.276 129.083 229.343L144.148 231.259C144.675 231.326 145.046 231.788 144.976 232.29L144.761 233.816C144.691 234.319 144.206 234.672 143.678 234.605Z" fill="#FFC727"/>
<g opacity="0.2">
<path d="M143.678 234.605L128.614 232.688C128.086 232.621 127.715 232.159 127.785 231.657L128 230.132C128.07 229.629 128.556 229.276 129.083 229.343L144.148 231.259C144.675 231.326 145.046 231.788 144.976 232.29L144.761 233.816C144.691 234.319 144.206 234.672 143.678 234.605Z" fill="white"/>
</g>
<path d="M190.987 245.404L187.365 244.943C185.439 244.698 184.086 243.012 184.343 241.18L184.788 238.012C185.045 236.179 186.816 234.892 188.742 235.136L192.364 235.597C194.29 235.842 195.642 237.527 195.385 239.36L194.941 242.528C194.684 244.361 192.914 245.649 190.987 245.404Z" fill="#FFC727"/>
<path d="M197.279 243.178L182.215 241.261C181.687 241.194 181.316 240.732 181.386 240.23L181.601 238.704C181.672 238.202 182.157 237.848 182.685 237.915L197.749 239.831C198.276 239.898 198.648 240.36 198.577 240.862L198.363 242.388C198.292 242.892 197.807 243.245 197.279 243.178Z" fill="#FFC727"/>
<g opacity="0.2">
<path d="M197.279 243.178L182.215 241.261C181.687 241.194 181.316 240.732 181.386 240.23L181.601 238.704C181.672 238.202 182.157 237.848 182.685 237.915L197.749 239.831C198.276 239.898 198.648 240.36 198.577 240.862L198.363 242.388C198.292 242.892 197.807 243.245 197.279 243.178Z" fill="white"/>
</g>
<path d="M516.697 308.519C516.697 308.519 481.414 335.658 481.388 335.675C474.612 340.832 468.769 345.467 465.98 348.133C465.963 348.145 465.946 348.157 465.936 348.177C464.883 349.182 464.274 349.898 464.242 350.245C464.237 350.273 464.227 350.293 464.231 350.315C464.478 353.274 506.192 406.014 508.298 407.386C510.401 408.773 514.68 403.157 514.777 399.881C514.861 396.588 508.385 369.607 508.385 369.607L543.382 342.161L516.697 308.519Z" fill="#D3766A"/>
<path d="M514.784 399.878C514.687 403.162 510.4 408.775 508.293 407.393C506.198 406.01 464.481 353.271 464.227 350.32C464.227 350.297 464.238 350.274 464.238 350.251C464.275 349.894 464.88 349.18 465.934 348.177C465.946 348.154 465.958 348.142 465.982 348.131C467.593 346.587 470.245 344.374 473.514 341.792C481.918 356.901 506.682 388.733 510.278 392.133C513.173 394.853 512.046 386.498 511.138 381.404C512.895 389.114 514.821 398.069 514.784 399.878Z" fill="#263238"/>
<path d="M535.778 276.18C533.28 287.928 482.062 334.809 482.062 334.809L517.77 374.038C517.77 374.038 590.486 304.954 586.691 278.995C583.39 256.414 547.871 165.61 547.871 165.61H506.892C506.892 165.61 538.236 264.626 535.778 276.18Z" fill="#455A64"/>
<path d="M521.831 364.711C517.086 359.09 518.531 360.639 513.721 355.07C511.367 352.344 495.88 334.445 493.215 332.269C493.156 332.221 493.058 332.3 493.097 332.363C494.883 335.241 510.694 352.879 513.104 355.562C518.026 361.043 516.676 359.418 521.662 364.846C521.755 364.948 521.92 364.817 521.831 364.711Z" fill="#263238"/>
<path d="M542.82 272.312C542.234 269.379 541.568 266.458 540.915 263.537C539.582 257.572 538.174 251.623 536.686 245.692C533.736 233.928 530.541 222.227 527.059 210.596C523.566 198.924 519.874 187.273 515.621 175.829C515.095 174.415 514.554 173.005 514.012 171.597C513.971 171.49 513.796 171.538 513.832 171.648C517.515 183.113 521.311 194.544 524.764 206.074C528.203 217.557 531.384 229.101 534.385 240.695C535.892 246.516 537.294 252.361 538.664 258.211C539.338 261.086 539.995 263.964 540.637 266.845C541.287 269.767 542.161 272.755 542.353 275.744C542.541 278.681 541.534 281.284 539.945 283.759C538.409 286.151 536.6 288.402 534.854 290.657C531.353 295.176 497.999 330.55 496.925 331.511C496.841 331.587 496.97 331.701 497.055 331.628C501.531 327.805 529.831 298.649 533.425 294.137C535.202 291.905 536.935 289.64 538.637 287.356C540.228 285.218 541.828 283.035 542.707 280.528C543.654 277.834 543.369 275.053 542.82 272.312Z" fill="#263238"/>
<path d="M539.451 165.614L535.377 268.957C531.407 243.047 506.896 165.614 506.896 165.614H539.451Z" fill="#263238"/>
<path d="M523.21 356.935C523.21 356.935 532.056 397.93 532.055 397.961C532.173 406.217 532.432 413.453 532.933 417.184C532.932 417.204 532.932 417.225 532.941 417.245C533.129 418.653 533.35 419.55 533.618 419.787C533.638 419.807 533.649 419.827 533.669 419.838C536.274 421.469 605.626 422.494 608.057 421.755C610.498 421.026 608.466 414.362 605.807 412.28C603.128 410.196 576.771 398.502 576.771 398.502L567.495 357.532L523.21 356.935Z" fill="#D3766A"/>
<path d="M608.062 421.753C605.628 422.491 536.278 421.465 533.674 419.84C533.65 419.828 533.638 419.805 533.613 419.782C533.346 419.552 533.129 418.652 532.936 417.247V417.189C532.596 414.711 532.379 410.7 532.233 405.86C548.496 409.64 592.669 413.062 598.302 411.715C601.439 410.964 597.466 408.499 593.313 406.01C599.198 408.741 604.672 411.381 605.809 412.28C608.462 414.365 610.496 421.027 608.062 421.753Z" fill="#263238"/>
<path d="M543.919 165.611C543.872 166.43 539.75 199.841 538.608 200.74C537.312 201.753 530.11 206.341 527.929 207.607C527.929 207.607 547.572 265.847 552.782 285.265C560.335 313.417 578.427 397.875 578.427 397.875L530.223 397.868C530.223 397.868 515.566 317.464 509.158 290.663C503.665 267.686 482.62 198.756 482.62 198.756C478.006 180.394 484.324 165.611 484.324 165.611C484.324 165.611 543.925 165.58 543.919 165.611Z" fill="#455A64"/>
<path d="M576.684 388.947C569.108 388.908 571.282 388.818 563.708 388.86C560 388.88 535.638 389.039 532.184 389.636C532.108 389.649 532.11 389.772 532.186 389.782C535.659 390.277 560.013 389.716 563.719 389.627C571.293 389.445 569.116 389.42 576.687 389.157C576.83 389.152 576.827 388.948 576.684 388.947Z" fill="#263238"/>
<path d="M540.745 199.052C536.047 201.411 531.632 204.428 527.447 207.523C527.283 207.645 527.444 207.893 527.626 207.785C532.132 205.097 536.749 202.481 541.095 199.562C541.436 199.333 541.106 198.871 540.745 199.052Z" fill="#263238"/>
<path d="M537.064 167.358C537.025 167.202 536.727 167.21 536.756 167.381C537.685 172.831 538.102 177.686 538.45 182.857C538.612 185.257 538.745 198.635 534.276 198.319C533.528 198.266 533.049 197.644 532.766 196.624C532.427 195.399 532.671 193.798 532.685 192.528C532.717 189.718 532.653 186.914 532.449 184.11C532.068 178.878 531.249 173.711 529.749 168.66C529.7 168.494 529.446 168.545 529.474 168.716C530.646 175.864 531.614 183.029 531.646 190.275C531.661 193.758 530.697 199.147 534.521 199.118C538.417 199.089 539.481 190.144 539.563 187.728C539.791 180.985 538.689 173.906 537.064 167.358Z" fill="#263238"/>
<path d="M534.449 198.654C534.203 199.59 534.038 200.551 533.921 201.508C533.831 202.253 533.675 203.065 533.882 203.797C533.922 203.939 534.125 203.923 534.19 203.814C534.596 203.129 534.674 202.263 534.839 201.497C535.03 200.61 535.242 199.726 535.406 198.834C535.514 198.241 534.6 198.077 534.449 198.654Z" fill="#263238"/>
<path d="M524.919 364.724C524.791 363.662 524.64 362.602 524.483 361.544C524.181 359.51 523.822 357.486 523.493 355.455C522.834 351.377 522.098 347.312 521.341 343.249C519.829 335.148 518.081 327.073 516.241 319.034C515.2 314.489 513.988 309.998 512.712 305.509C512.623 305.196 512.16 305.347 512.218 305.652C512.994 309.761 513.74 313.872 514.623 317.962C515.504 322.04 516.382 326.118 517.233 330.201C518.917 338.272 520.486 346.365 522.163 354.438C522.637 356.717 523.067 359.003 523.534 361.282C523.767 362.419 524.009 363.556 524.266 364.689C524.522 365.818 524.892 366.929 525.087 368.068C525.106 368.175 525.277 368.125 525.258 368.02C525.072 366.931 525.052 365.819 524.919 364.724Z" fill="#263238"/>
<path d="M557.855 302.712C556.249 295.099 554.085 287.585 551.909 280.107C547.529 265.052 542.372 250.216 537.226 235.386C535.745 231.112 528.403 208.911 527.952 207.816C527.907 207.705 527.733 207.752 527.765 207.87C528.806 211.794 533.927 229.052 535.179 232.873C537.641 240.385 540.146 247.883 542.536 255.415C547.262 270.302 551.955 285.183 555.79 300.306C556.864 304.541 557.934 308.772 558.915 313.028C559.894 317.277 560.732 321.553 561.668 325.81C561.693 325.926 561.898 325.895 561.886 325.777C561.08 318.018 559.465 310.348 557.855 302.712Z" fill="#263238"/>
<path d="M527.889 342.533C525.235 328.011 522.057 313.567 518.535 299.214C514.997 284.791 511.057 270.456 506.715 256.233C502.374 242.011 497.563 227.912 492.397 213.943C489.948 207.321 487.457 200.688 485.85 193.826C484.26 187.041 483.453 179.703 485.113 172.861C485.535 171.121 486.066 169.423 486.761 167.764C486.809 167.65 486.634 167.552 486.581 167.669C480.783 180.525 484.546 194.587 488.96 207.263C491.379 214.207 493.959 221.099 496.343 228.054C498.792 235.193 501.136 242.365 503.381 249.565C507.83 263.832 511.96 278.185 515.66 292.645C519.358 307.103 522.654 321.654 525.553 336.276C528.463 350.951 530.909 365.684 533.391 380.427C533.714 382.345 533.969 384.273 534.233 386.198C534.247 386.305 534.425 386.303 534.412 386.195C532.555 371.586 530.538 357.034 527.889 342.533Z" fill="#263238"/>
<path d="M517.986 75.2449C508.171 79.9866 506.666 93.541 508.277 112.659C508.521 115.563 534.644 119.463 546.712 109.925C548.663 108.383 544.638 85.0917 539.338 78.5671C532.761 70.472 524.066 72.3083 517.986 75.2449Z" fill="#263238"/>
<path d="M517.724 75.4511C512.6 78.2258 509.48 83.4257 508.226 88.7975C507.314 92.7112 507.014 96.8742 506.74 100.867C506.477 104.702 506.383 108.645 507.119 112.436C507.146 112.571 507.35 112.546 507.341 112.409C506.881 105.186 507.432 97.8752 508.636 90.7286C509.648 84.7238 512.594 79.2636 517.944 75.8108C518.146 75.6793 517.943 75.3324 517.724 75.4511Z" fill="#263238"/>
<path d="M543.48 84.9729C541.338 78.9672 537.003 74.7986 530.721 73.1104C530.682 73.1003 530.663 73.1656 530.703 73.1785C537.517 75.3865 541.537 80.2542 543.578 86.8506C545.8 94.0276 546.927 101.364 547.924 108.769C547.946 108.935 548.195 108.902 548.184 108.737C547.678 100.841 546.153 92.4691 543.48 84.9729Z" fill="#263238"/>
<path d="M526.209 125.773C536.383 145.757 549.302 167.396 561.393 170.793C572.894 174.024 601.428 147.367 606.418 138.379C608.139 135.28 584.495 120.881 581.323 123.102C575.346 127.291 564.379 140.675 562.575 140.273C560.696 139.847 545.731 126.264 532.139 114.803C523.899 107.856 519.161 111.93 526.209 125.773Z" fill="#D3766A"/>
<path d="M596.27 145.369C596.27 145.369 606.995 142.323 613.912 140.016C617.77 138.729 624.178 135.962 626.558 133.783C630.118 130.524 642.821 114.727 638.864 111.714C635.281 108.986 626.178 123.876 626.178 123.876C626.178 123.876 636.759 109.623 631.811 107.093C626.863 104.563 618.929 122.688 618.929 122.688C618.929 122.688 629.455 107.812 623.918 105.972C619.735 104.581 611.576 120.612 611.576 120.612C611.576 120.612 620.531 107.766 616.294 106.159C611.61 104.384 603.105 118.731 603.105 118.731C591.609 116.372 583.453 121.282 579.294 124.701C578.324 125.498 596.27 145.369 596.27 145.369Z" fill="#D3766A"/>
<path d="M623.329 128.339C631.965 118.406 633.003 111.018 632.933 111.208C631.295 115.72 627.279 121.996 626.13 123.733C624.983 125.465 624.405 126.565 623.258 128.299C623.228 128.343 623.296 128.376 623.329 128.339Z" fill="#263238"/>
<path d="M616.187 125.191C620.596 120.741 624.021 114.382 624.84 112.016C624.905 111.825 624.807 111.846 624.698 112.02C623.3 114.266 617.635 122.987 616.13 125.159C616.107 125.192 616.159 125.22 616.187 125.191Z" fill="#263238"/>
<path d="M609.847 122.876C613.476 118.615 614.649 116.359 616.23 112.488C616.305 112.302 616.15 112.336 616.046 112.514C613.993 116.005 612.408 118.758 609.731 122.791C609.688 122.854 609.791 122.942 609.847 122.876Z" fill="#263238"/>
<path d="M575.941 126.383L597.92 150.054C597.92 150.054 573.011 174.962 561.816 171.932C550.621 168.903 530.271 139.171 524.057 120.501C519.758 107.582 527.156 109.863 534.783 116.366C542.409 122.87 562.386 139.043 563.291 138.84C564.196 138.637 575.941 126.383 575.941 126.383Z" fill="#FFC727"/>
<g opacity="0.5">
<path d="M575.941 126.383L597.92 150.054C597.92 150.054 573.011 174.962 561.816 171.932C550.621 168.903 530.271 139.171 524.057 120.501C519.758 107.582 527.156 109.863 534.783 116.366C542.409 122.87 562.386 139.043 563.291 138.84C564.196 138.637 575.941 126.383 575.941 126.383Z" fill="white"/>
</g>
<path opacity="0.1" d="M524.053 120.503C530.267 139.166 550.619 168.899 561.818 171.932C566.76 173.274 574.396 169.155 581.373 164.132C581.373 164.132 581.383 164.122 581.373 164.122C570.249 152.48 540.56 124.213 527.121 111.485C523.331 110.203 521.317 112.263 524.053 120.503Z" fill="black"/>
<path d="M590.406 153.645C587.218 150.377 574.683 136.546 572.187 133.384C572.014 133.165 572.117 133.007 572.329 133.213C582.132 142.789 587.583 150.163 590.538 153.521C590.611 153.606 590.487 153.729 590.406 153.645Z" fill="#263238"/>
<path d="M487.356 166.487L548.216 166.473L543.511 149.365C543.511 149.365 547.48 142.411 546.293 137.745C545.003 132.679 537.942 121.862 533.754 117.072C523.553 105.403 514.688 110.678 511.861 113.68C501.061 125.144 487.356 166.487 487.356 166.487Z" fill="#FFC727"/>
<path opacity="0.5" d="M487.356 166.487L548.216 166.473L543.511 149.365C543.511 149.365 547.48 142.411 546.293 137.745C545.003 132.679 537.942 121.862 533.754 117.072C523.553 105.403 514.688 110.678 511.861 113.68C501.061 125.144 487.356 166.487 487.356 166.487Z" fill="white"/>
<path d="M526.062 147.47C528.632 147.393 531.224 147.4 533.781 147.686C535.054 147.828 536.311 148.026 537.57 148.25C538.197 148.361 538.825 148.453 539.457 148.541C540.104 148.633 540.797 148.705 541.452 148.642C541.511 148.636 541.52 148.72 541.462 148.728C540.83 148.826 540.225 148.918 539.583 148.934C538.973 148.951 538.358 148.905 537.751 148.842C536.459 148.709 535.174 148.519 533.884 148.374C531.281 148.08 528.678 147.787 526.057 147.672C525.937 147.668 525.94 147.473 526.062 147.47Z" fill="#263238"/>
<path d="M520.076 150.418C522.133 149.949 524.245 149.567 526.345 149.322C527.402 149.2 528.457 149.137 529.52 149.099C530.028 149.08 530.536 149.072 531.044 149.069C531.603 149.065 532.163 149.133 532.721 149.121C532.779 149.12 532.792 149.205 532.732 149.207C532.206 149.233 531.681 149.342 531.157 149.397C530.63 149.452 530.103 149.504 529.577 149.558C528.523 149.668 527.471 149.789 526.415 149.889C524.302 150.091 522.2 150.311 520.096 150.582C519.983 150.598 519.97 150.443 520.076 150.418Z" fill="#263238"/>
<path d="M508.698 117.052C495.021 139.515 474.568 191.062 470.875 198.436C468.369 203.439 495.856 216.63 497.024 212.991C498.518 208.33 517.597 148.29 518.84 121.503C519.416 109.088 513.073 109.868 508.698 117.052Z" fill="#D3766A"/>
<path d="M497.764 210.479C497.126 215.017 493.889 224.152 491.477 225.546C489.066 226.939 476.416 226.64 470.039 226.64C463.662 226.64 462.408 224.949 462.512 222.86C462.616 220.771 475.998 220.372 475.998 220.372C475.998 220.372 458.127 225.247 453.631 226.044C449.136 226.84 438.781 229.327 437.282 225.779C436.606 224.18 439.442 222.562 439.442 222.562C439.442 222.562 435.096 223.77 434.405 221.714C433.618 219.373 437.072 218.085 437.072 218.085C437.072 218.085 434.357 218.606 434.294 216.699C434.155 212.437 451.15 210.342 451.15 210.342C451.15 210.342 438.137 216.372 437.719 212.894C437.14 208.08 463.81 202.8 466.587 200.702C469.364 198.602 472.238 195.476 472.238 195.476L497.764 210.479Z" fill="#D3766A"/>
<path d="M462.608 223.919C462.529 223.283 462.754 222.689 463.214 222.295C463.653 221.888 464.195 221.587 464.768 221.335C465.917 220.838 467.167 220.502 468.422 220.207C470.935 219.599 473.511 219.171 476.077 218.539C473.428 218.502 470.79 218.781 468.203 219.382C466.917 219.703 465.626 220.085 464.444 220.75C463.856 221.075 463.295 221.493 462.875 222.034C462.459 222.58 462.324 223.337 462.608 223.919Z" fill="#263238"/>
<path d="M439.444 222.561C441.283 222.134 443.094 221.639 444.904 221.141C446.716 220.653 448.511 220.117 450.312 219.6L455.695 217.994C457.489 217.458 459.284 216.928 461.097 216.414C459.209 216.581 457.354 216.956 455.514 217.362C453.669 217.761 451.855 218.265 450.049 218.786C448.248 219.325 446.455 219.885 444.69 220.521C442.92 221.151 441.161 221.803 439.444 222.561Z" fill="#263238"/>
<path d="M456.781 212.166C455.044 212.252 453.327 212.519 451.625 212.844C449.919 213.159 448.241 213.592 446.581 214.081C444.926 214.582 443.287 215.137 441.7 215.816C440.104 216.467 438.556 217.226 437.073 218.084C438.716 217.544 440.317 216.944 441.951 216.426C443.578 215.898 445.204 215.371 446.848 214.893C448.482 214.39 450.134 213.941 451.786 213.478C453.443 213.024 455.106 212.598 456.781 212.166Z" fill="#263238"/>
<path d="M454.153 208.106C451.345 208.265 448.601 208.91 445.946 209.755C443.296 210.619 440.721 211.736 438.396 213.236C441.039 212.339 443.608 211.394 446.234 210.561C448.85 209.7 451.486 208.922 454.153 208.106Z" fill="#263238"/>
<path d="M469.267 197.264L499.4 211.279C499.4 211.279 516.926 146.72 518.875 125.881C520.824 105.043 512.403 109.837 506.594 119.624C498.653 133.004 469.267 197.264 469.267 197.264Z" fill="#FFC727"/>
<path opacity="0.5" d="M469.267 197.264L499.4 211.279C499.4 211.279 516.926 146.72 518.875 125.881C520.824 105.043 512.403 109.837 506.594 119.624C498.653 133.004 469.267 197.264 469.267 197.264Z" fill="white"/>
<path d="M498.681 203.995C494.577 202.41 478.032 195.341 474.567 193.584C474.326 193.463 474.349 193.288 474.616 193.383C487.034 197.851 494.8 202.088 498.741 203.838C498.839 203.882 498.785 204.034 498.681 203.995Z" fill="#263238"/>
<path d="M509.921 170.198C510.37 167.126 510.931 164.076 511.508 161.03C512.074 157.981 512.719 154.948 513.366 151.916C514.037 148.888 514.709 145.86 515.46 142.848L516.591 138.331C517.004 136.832 517.383 135.327 517.829 133.834C517.615 135.372 517.335 136.897 517.089 138.428L516.243 143.002C515.676 146.051 515.03 149.083 514.383 152.116C513.711 155.144 513.039 158.172 512.287 161.184C511.548 164.198 510.79 167.209 509.921 170.198Z" fill="#263238"/>
<path d="M516.112 141.729C516.331 140.918 516.687 140.176 517.076 139.45C517.482 138.733 517.922 138.032 518.5 137.401C518.282 138.212 517.926 138.955 517.536 139.68C517.128 140.396 516.689 141.097 516.112 141.729Z" fill="#263238"/>
<path d="M529.722 123.022C529.722 123.022 518.983 113.816 513.073 113.687L507.813 117.643C507.813 117.643 506.138 118.066 505.69 117.047C504.58 114.527 504.687 108.585 510.278 105.029C515.397 101.773 525.425 103.043 532.027 105.09C538.366 107.056 541.696 110.857 539.48 114.745C537.263 118.633 529.722 123.022 529.722 123.022Z" fill="#FFC727"/>
<path opacity="0.5" d="M529.722 123.022C529.722 123.022 518.983 113.816 513.073 113.687L507.813 117.643C507.813 117.643 506.138 118.066 505.69 117.047C504.58 114.527 504.687 108.585 510.278 105.029C515.397 101.773 525.425 103.043 532.027 105.09C538.366 107.056 541.696 110.857 539.48 114.745C537.263 118.633 529.722 123.022 529.722 123.022Z" fill="white"/>
<path opacity="0.1" d="M530.481 121.18C530.481 121.18 536.019 116.333 536.962 113.395C537.903 110.458 531.817 107.277 527.842 105.942C521.691 103.877 517.407 104.027 513.711 107.012C510.014 109.999 530.481 121.18 530.481 121.18Z" fill="black"/>
<path d="M520.546 114.026C520.761 115.052 526.006 119.847 530.905 119.783C532.501 119.76 532.388 113.445 532.388 113.445L532.555 112.837L534.871 104.321L524.508 97.5181L523.008 96.6138C523.008 96.6138 522.535 98.9837 521.979 101.94C521.952 102.077 521.926 102.214 521.899 102.361C521.863 102.528 521.827 102.684 521.801 102.841C521.711 103.282 521.622 103.732 521.544 104.183C521.483 104.525 521.421 104.858 521.37 105.219C521.309 105.582 521.258 105.933 521.197 106.296C520.679 109.874 520.461 113.591 520.546 114.026Z" fill="#D3766A"/>
<path d="M521.979 101.94C524.322 108.85 529.956 111.816 532.555 112.837L534.871 104.321L524.508 97.5181L523.008 96.6138C523.008 96.6138 522.535 98.9837 521.979 101.94Z" fill="#263238"/>
<path d="M546.013 88.3955C550.921 103.11 542.214 107.569 538.879 108.573C535.852 109.484 525.422 112.22 518.943 98.0665C512.465 83.9132 518.102 77.0896 524.91 74.6571C531.719 72.2255 541.106 73.681 546.013 88.3955Z" fill="#D3766A"/>
<path d="M541.452 88.5476C541.075 88.613 540.715 88.613 540.336 88.6406C539.908 88.6718 539.57 88.739 539.179 88.5283C538.969 88.4161 538.879 88.0904 538.975 87.8871C539.198 87.4124 539.713 87.2495 540.227 87.1925C540.786 87.1299 541.232 87.2173 541.706 87.5044C542.164 87.7813 541.949 88.4612 541.452 88.5476Z" fill="#263238"/>
<path d="M530.5 91.0622C530.851 90.9159 531.149 90.7264 531.482 90.5479C531.856 90.3465 532.176 90.2232 532.378 89.8423C532.486 89.6381 532.371 89.3197 532.172 89.2011C531.709 88.9241 531.186 89.0621 530.725 89.2866C530.224 89.5304 529.905 89.8405 529.679 90.329C529.46 90.8037 530.036 91.2545 530.5 91.0622Z" fill="#263238"/>
<path d="M533.694 93.2415C533.673 93.2057 533.629 93.3142 533.644 93.3547C534.023 94.3419 534.283 95.5342 533.449 96.1635C533.423 96.1828 533.443 96.2325 533.477 96.2159C534.581 95.6989 534.219 94.1192 533.694 93.2415Z" fill="#263238"/>
<path d="M532.396 92.4928C530.667 92.9003 531.65 96.1617 533.253 95.7845C534.829 95.4128 533.846 92.1514 532.396 92.4928Z" fill="#263238"/>
<path d="M531.775 92.8495C531.532 93.1154 531.337 93.5211 530.986 93.6536C530.58 93.8072 530.162 93.5515 529.79 93.2976C529.751 93.2709 529.731 93.3077 529.743 93.3509C529.921 93.9784 530.367 94.5506 531.1 94.4513C531.768 94.3611 532.062 93.6821 532.037 93.0087C532.032 92.8845 531.873 92.7419 531.775 92.8495Z" fill="#263238"/>
<path d="M539.979 91.4555C539.976 91.415 540.077 91.4812 540.088 91.5236C540.35 92.5448 540.832 93.6727 541.892 93.7536C541.925 93.7564 541.937 93.8079 541.9 93.8125C540.679 93.9671 540.056 92.4638 539.979 91.4555Z" fill="#263238"/>
<path d="M540.619 90.1465C542.295 89.5688 543.385 92.7998 541.834 93.3352C540.306 93.8615 539.216 90.6304 540.619 90.1465Z" fill="#263238"/>
<path d="M541.4 90.1429C541.725 90.2322 542.096 90.4622 542.423 90.3849C542.802 90.2947 542.959 89.8605 543.083 89.4539C543.096 89.4115 543.132 89.4309 543.148 89.4732C543.374 90.085 543.376 90.7943 542.793 91.1025C542.261 91.3849 541.665 90.982 541.303 90.4143C541.235 90.3085 541.268 90.1071 541.4 90.1429Z" fill="#263238"/>
<path d="M536.026 101.17C536.324 101.38 536.634 101.681 537.035 101.661C537.42 101.641 537.842 101.419 538.173 101.244C538.206 101.226 538.245 101.257 538.228 101.291C538.002 101.728 537.44 102.057 536.921 102.039C536.413 102.021 536.109 101.646 535.927 101.231C535.902 101.173 535.982 101.14 536.026 101.17Z" fill="#263238"/>
<path d="M539.784 96.5932C539.784 96.5932 540.327 98.0919 540.477 98.8187C540.491 98.8868 540.313 98.9539 540.057 99.0165C540.045 99.0229 540.039 99.0285 540.027 99.0229C538.72 99.4756 537.271 99.2879 536.236 98.3936C536.168 98.3329 536.249 98.2391 536.328 98.2722C537.481 98.7865 538.63 98.7598 539.83 98.5547C539.842 98.3431 538.811 96.0182 538.93 95.9869C539.341 95.8747 540.218 95.9906 540.74 96.0357C539.706 92.8838 538.148 89.914 537.167 86.7603C537.134 86.6471 537.3 86.5799 537.356 86.6756C539.22 89.6776 540.495 93.2803 541.651 96.5095C541.801 96.9106 540.116 96.6594 539.784 96.5932Z" fill="#263238"/>
<path d="M539.924 98.7618C539.924 98.7618 539.449 99.8833 538.539 100.471C538.205 100.689 537.82 100.837 537.373 100.835C536.458 100.832 536.233 100.089 536.215 99.4104C536.199 98.852 536.331 98.335 536.331 98.335C536.331 98.335 537.887 99.14 539.924 98.7618Z" fill="#263238"/>
<path d="M538.539 100.471C538.205 100.689 537.82 100.838 537.373 100.835C536.458 100.832 536.233 100.09 536.215 99.4106C537.159 99.2726 538.229 99.6415 538.539 100.471Z" fill="#FF9ABB"/>
<path d="M517.973 98.1537C520.746 97.9725 520.532 92.4139 520.532 92.4139C520.532 92.4139 526.105 91.6512 526.766 83.7695C526.766 83.7695 527.194 87.3355 525.274 90.4193C525.274 90.4193 534.943 88.0549 537.873 79.6525C537.873 79.6525 536.839 83.868 535.51 85.5019C535.51 85.5019 539.461 83.8321 540.979 80.3674C540.979 80.3674 543.396 84.6426 544.912 85.7052C544.912 85.7052 541.983 69.4028 526.329 73.3689C526.329 73.3689 516.455 75.392 514.034 83.4043C511.611 91.4147 517.973 98.1537 517.973 98.1537Z" fill="#263238"/>
<path d="M521.803 97.0664C521.803 97.0664 517.239 93.1021 515.274 94.7535C513.309 96.4049 517.514 102.666 520.365 103.036C523.217 103.406 523.629 100.901 523.629 100.901L521.803 97.0664Z" fill="#D3766A"/>
<path d="M516.527 96.5199C516.483 96.5254 516.488 96.5834 516.529 96.5898C518.542 96.9072 519.898 98.3277 520.976 99.8715C520.275 99.3388 519.443 99.1419 518.675 99.9589C518.634 100.002 518.697 100.064 518.747 100.042C519.466 99.7261 520.042 99.7344 520.688 100.202C521.147 100.532 521.515 100.996 521.885 101.411C522.009 101.55 522.286 101.401 522.181 101.234C522.173 101.222 522.164 101.209 522.157 101.196C521.674 98.9487 519.106 96.2053 516.527 96.5199Z" fill="#263238"/>
<path d="M530.481 121.18C530.481 121.18 521.744 108.788 512.699 107.128L513.073 113.688C513.073 113.688 520.657 114.232 529.722 123.023L530.481 121.18Z" fill="#FFC727"/>
<path opacity="0.5" d="M530.481 121.18C530.481 121.18 521.744 108.788 512.699 107.128L513.073 113.688C513.073 113.688 520.657 114.232 529.722 123.023L530.481 121.18Z" fill="white"/>
<path d="M510.608 113.672C512.289 113.567 513.926 114.008 515.463 114.564C521.627 116.313 527.701 121.562 527.701 121.562L529.437 123.268L529.633 123.459L529.869 123.36C533.027 121.945 536.328 118.438 536.948 117.746C534.474 119.908 530.443 122.353 529.576 122.687L530.007 122.779L528.271 121.02C527.668 120.456 520.948 115.694 515.618 114.145C515.217 114.013 514.8 113.922 514.391 113.82C513.972 113.746 513.556 113.663 513.134 113.622C512.295 113.521 511.432 113.499 510.608 113.672Z" fill="#263238"/>
<path d="M507.813 117.643C508.789 117.103 509.688 116.472 510.57 115.819C511.442 115.154 512.297 114.467 513.073 113.688C512.097 114.227 511.197 114.858 510.315 115.512C509.443 116.178 508.59 116.864 507.813 117.643Z" fill="#263238"/>
<path d="M528.262 119.307C528.262 119.307 527.023 122.537 526.212 127.34C525.891 129.24 525.661 136.182 527.924 136.23C530.186 136.277 527.204 131.383 527.096 127.692C526.985 123.945 528.386 121.493 528.837 119.351L528.262 119.307Z" fill="#FFC727"/>
<g opacity="0.1">
<path d="M528.262 119.307C528.262 119.307 527.023 122.537 526.212 127.34C525.891 129.24 525.661 136.182 527.924 136.23C530.186 136.277 527.204 131.383 527.096 127.692C526.985 123.945 528.386 121.493 528.837 119.351L528.262 119.307Z" fill="black"/>
</g>
<path d="M533.797 119.893C533.797 119.893 534.845 122.87 535.461 127.273C535.705 129.016 535.736 135.358 533.669 135.349C531.602 135.339 534.45 130.941 534.645 127.574C534.844 124.156 533.628 121.885 533.272 119.919L533.797 119.893Z" fill="#FFC727"/>
<g opacity="0.1">
<path d="M533.797 119.893C533.797 119.893 534.845 122.87 535.461 127.273C535.705 129.016 535.736 135.358 533.669 135.349C531.602 135.339 534.45 130.941 534.645 127.574C534.844 124.156 533.628 121.885 533.272 119.919L533.797 119.893Z" fill="black"/>
</g>
</svg>
